<?xml version="1.0" encoding="UTF-8" standalone="no"?>
<!DOCTYPE svg PUBLIC "-//W3C//DTD SVG 1.1//EN" "http://www.w3.org/Graphics/SVG/1.1/DTD/svg11.dtd">
<svg width="100%" height="100%" viewBox="0 0 330 80" version="1.1" xmlns="http://www.w3.org/2000/svg" xmlns:xlink="http://www.w3.org/1999/xlink" xml:space="preserve" xmlns:serif="http://www.serif.com/" style="fill-rule:evenodd;clip-rule:evenodd;stroke-linejoin:round;stroke-miterlimit:2;">
    <g>
        <rect x="0" y="0" width="330" height="80" style="fill:none;"/>
        <g transform="matrix(4.26124,0,0,4.26124,-24995.1,7062.22)">
            <path d="M5866.02,-1648.46L5867.9,-1648.46C5869.07,-1648.46 5870.03,-1649.4 5870.03,-1650.64C5870.03,-1651.3 5869.7,-1651.95 5869.19,-1652.3C5869.11,-1652.37 5869.11,-1652.46 5869.19,-1652.54C5869.62,-1652.89 5869.88,-1653.44 5869.88,-1653.96C5869.88,-1655.12 5868.99,-1655.95 5867.9,-1655.95L5866.02,-1655.95C5865.9,-1655.95 5865.8,-1655.85 5865.8,-1655.74L5865.8,-1648.68C5865.8,-1648.56 5865.9,-1648.46 5866.02,-1648.46ZM5866.49,-1649.26L5866.49,-1651.95C5866.49,-1652.01 5866.53,-1652.06 5866.6,-1652.06L5867.9,-1652.06C5868.69,-1652.06 5869.32,-1651.42 5869.32,-1650.61C5869.32,-1649.8 5868.69,-1649.15 5867.9,-1649.15L5866.6,-1649.15C5866.53,-1649.15 5866.49,-1649.19 5866.49,-1649.26ZM5866.49,-1652.84L5866.49,-1655.16C5866.49,-1655.22 5866.53,-1655.27 5866.6,-1655.27L5867.94,-1655.27C5868.63,-1655.27 5869.17,-1654.69 5869.17,-1653.98C5869.17,-1653.29 5868.63,-1652.73 5867.94,-1652.73L5866.6,-1652.73C5866.53,-1652.73 5866.49,-1652.77 5866.49,-1652.84Z" style="fill-rule:nonzero;"/>
            <path d="M5872.02,-1648.46L5872.28,-1648.46C5872.39,-1648.46 5872.49,-1648.56 5872.49,-1648.68L5872.49,-1655.74C5872.49,-1655.85 5872.39,-1655.95 5872.28,-1655.95L5872.02,-1655.95C5871.9,-1655.95 5871.8,-1655.85 5871.8,-1655.74L5871.8,-1648.68C5871.8,-1648.56 5871.9,-1648.46 5872.02,-1648.46Z" style="fill-rule:nonzero;"/>
            <path d="M5876.83,-1648.36C5878.27,-1648.36 5879.16,-1649.27 5879.16,-1650.76L5879.16,-1652.01C5879.16,-1652.13 5879.07,-1652.23 5878.95,-1652.23L5877.07,-1652.23C5876.95,-1652.23 5876.85,-1652.13 5876.85,-1652.01L5876.85,-1651.76C5876.85,-1651.64 5876.95,-1651.54 5877.07,-1651.54L5878.34,-1651.54C5878.4,-1651.54 5878.45,-1651.5 5878.45,-1651.44L5878.45,-1650.76C5878.45,-1649.66 5877.86,-1649.04 5876.83,-1649.04C5876.19,-1649.04 5875.57,-1649.37 5875.27,-1650.09C5875.07,-1650.57 5875.06,-1651.42 5875.06,-1652.21C5875.06,-1653 5875.07,-1653.84 5875.27,-1654.33C5875.57,-1655.04 5876.19,-1655.37 5876.83,-1655.37C5877.86,-1655.37 5878.45,-1654.73 5878.45,-1653.88C5878.45,-1653.76 5878.54,-1653.66 5878.66,-1653.66L5878.95,-1653.66C5879.07,-1653.66 5879.16,-1653.76 5879.16,-1653.88C5879.16,-1655.11 5878.27,-1656.06 5876.83,-1656.06C5875.75,-1656.06 5874.97,-1655.44 5874.61,-1654.61C5874.35,-1654.04 5874.34,-1653.2 5874.34,-1652.21C5874.34,-1651.21 5874.35,-1650.38 5874.61,-1649.8C5874.97,-1648.98 5875.75,-1648.36 5876.83,-1648.36Z" style="fill-rule:nonzero;"/>
            <path d="M5882.13,-1648.46L5882.59,-1648.46C5882.68,-1648.46 5882.77,-1648.52 5882.79,-1648.62L5884.07,-1654.51C5884.09,-1654.6 5884.22,-1654.6 5884.24,-1654.51L5885.53,-1648.62C5885.55,-1648.52 5885.64,-1648.46 5885.73,-1648.46L5886.19,-1648.46C5886.29,-1648.46 5886.37,-1648.52 5886.39,-1648.62L5887.99,-1655.69C5888.02,-1655.82 5887.94,-1655.95 5887.77,-1655.95L5887.51,-1655.95C5887.41,-1655.95 5887.32,-1655.91 5887.3,-1655.79L5886.03,-1649.83C5886.01,-1649.74 5885.88,-1649.74 5885.86,-1649.83L5884.59,-1655.79C5884.57,-1655.9 5884.48,-1655.95 5884.38,-1655.95L5883.93,-1655.95C5883.84,-1655.95 5883.75,-1655.9 5883.73,-1655.79L5882.46,-1649.83C5882.44,-1649.74 5882.31,-1649.74 5882.29,-1649.83L5881.01,-1655.79C5880.99,-1655.91 5880.91,-1655.95 5880.81,-1655.95L5880.54,-1655.95C5880.38,-1655.95 5880.3,-1655.82 5880.33,-1655.69L5881.92,-1648.62C5881.94,-1648.52 5882.03,-1648.46 5882.13,-1648.46Z" style="fill-rule:nonzero;"/>
            <path d="M5888.56,-1648.46L5888.82,-1648.46C5888.92,-1648.46 5888.99,-1648.52 5889.03,-1648.62L5889.58,-1650.46C5889.6,-1650.54 5889.64,-1650.58 5889.71,-1650.58L5892.21,-1650.58C5892.29,-1650.58 5892.32,-1650.54 5892.34,-1650.46L5892.9,-1648.62C5892.93,-1648.52 5893,-1648.46 5893.1,-1648.46L5893.37,-1648.46C5893.52,-1648.46 5893.61,-1648.6 5893.57,-1648.74L5891.39,-1655.78C5891.36,-1655.9 5891.27,-1655.95 5891.18,-1655.95L5890.75,-1655.95C5890.65,-1655.95 5890.57,-1655.9 5890.53,-1655.78L5888.35,-1648.74C5888.31,-1648.6 5888.4,-1648.46 5888.56,-1648.46ZM5889.86,-1651.38L5890.88,-1654.75C5890.91,-1654.85 5891.02,-1654.85 5891.05,-1654.75L5892.06,-1651.38C5892.09,-1651.32 5892.04,-1651.24 5891.97,-1651.24L5889.96,-1651.24C5889.88,-1651.24 5889.84,-1651.32 5889.86,-1651.38Z" style="fill-rule:nonzero;"/>
            <path d="M5894.69,-1648.46L5895.02,-1648.46C5895.12,-1648.46 5895.16,-1648.51 5895.23,-1648.62L5896.74,-1651.48C5896.77,-1651.54 5896.87,-1651.54 5896.9,-1651.48L5898.4,-1648.62C5898.46,-1648.51 5898.5,-1648.46 5898.61,-1648.46L5898.93,-1648.46C5899.14,-1648.46 5899.18,-1648.63 5899.1,-1648.77L5897.3,-1652.14C5897.26,-1652.22 5897.26,-1652.27 5897.29,-1652.34L5899.06,-1655.64C5899.13,-1655.78 5899.1,-1655.95 5898.89,-1655.95L5898.57,-1655.95C5898.47,-1655.95 5898.43,-1655.91 5898.36,-1655.79L5896.9,-1653.01C5896.87,-1652.94 5896.77,-1652.94 5896.74,-1653.01L5895.26,-1655.79C5895.2,-1655.91 5895.15,-1655.95 5895.06,-1655.95L5894.74,-1655.95C5894.52,-1655.95 5894.49,-1655.78 5894.57,-1655.64L5896.33,-1652.34C5896.36,-1652.27 5896.36,-1652.22 5896.32,-1652.14L5894.52,-1648.77C5894.45,-1648.63 5894.48,-1648.46 5894.69,-1648.46Z" style="fill-rule:nonzero;"/>
            <path d="M5866.02,-1639.91L5867.94,-1639.91C5869,-1639.91 5869.76,-1640.48 5870.11,-1641.24C5870.38,-1641.81 5870.38,-1642.65 5870.38,-1643.65C5870.38,-1644.64 5870.38,-1645.49 5870.11,-1646.06C5869.76,-1646.82 5869,-1647.39 5867.94,-1647.39L5866.02,-1647.39C5865.9,-1647.39 5865.8,-1647.3 5865.8,-1647.18L5865.8,-1640.12C5865.8,-1640 5865.9,-1639.91 5866.02,-1639.91ZM5866.49,-1640.7L5866.49,-1646.6C5866.49,-1646.67 5866.53,-1646.71 5866.6,-1646.71L5867.94,-1646.71C5868.56,-1646.71 5869.17,-1646.43 5869.45,-1645.77C5869.65,-1645.29 5869.66,-1644.44 5869.66,-1643.65C5869.66,-1642.86 5869.66,-1642 5869.45,-1641.53C5869.16,-1640.89 5868.56,-1640.59 5867.94,-1640.59L5866.6,-1640.59C5866.53,-1640.59 5866.49,-1640.63 5866.49,-1640.7Z" style="fill-rule:nonzero;"/>
            <path d="M5872.02,-1639.91L5872.28,-1639.91C5872.39,-1639.91 5872.49,-1640 5872.49,-1640.12L5872.49,-1647.18C5872.49,-1647.3 5872.39,-1647.39 5872.28,-1647.39L5872.02,-1647.39C5871.9,-1647.39 5871.8,-1647.3 5871.8,-1647.18L5871.8,-1640.12C5871.8,-1640 5871.9,-1639.91 5872.02,-1639.91Z" style="fill-rule:nonzero;"/>
            <path d="M5876.5,-1639.8C5877.86,-1639.8 5878.77,-1640.72 5878.77,-1641.91C5878.77,-1643.09 5878.05,-1643.67 5877.06,-1643.98L5876.27,-1644.23C5875.68,-1644.41 5875.1,-1644.77 5875.1,-1645.57C5875.1,-1646.36 5875.7,-1646.82 5876.53,-1646.82C5877.41,-1646.82 5877.97,-1646.35 5877.97,-1645.55L5877.97,-1645.41C5877.97,-1645.3 5878.06,-1645.2 5878.18,-1645.2L5878.45,-1645.2C5878.56,-1645.2 5878.66,-1645.3 5878.66,-1645.41L5878.66,-1645.55C5878.66,-1646.74 5877.73,-1647.5 5876.53,-1647.5C5875.38,-1647.5 5874.39,-1646.75 5874.39,-1645.57C5874.39,-1644.38 5875.13,-1643.85 5875.97,-1643.6L5876.77,-1643.35C5877.58,-1643.1 5878.06,-1642.69 5878.06,-1641.91C5878.06,-1641.07 5877.43,-1640.48 5876.5,-1640.48C5875.57,-1640.48 5874.86,-1641.06 5874.86,-1642.05L5874.86,-1642.11C5874.86,-1642.23 5874.77,-1642.32 5874.65,-1642.32L5874.37,-1642.32C5874.25,-1642.32 5874.16,-1642.23 5874.16,-1642.11L5874.16,-1642.05C5874.16,-1640.57 5875.14,-1639.8 5876.5,-1639.8Z" style="fill-rule:nonzero;"/>
            <path d="M5881.73,-1639.91L5881.99,-1639.91C5882.11,-1639.91 5882.2,-1640 5882.2,-1640.12L5882.2,-1646.6C5882.2,-1646.67 5882.24,-1646.71 5882.31,-1646.71L5883.89,-1646.71C5884.01,-1646.71 5884.11,-1646.81 5884.11,-1646.92L5884.11,-1647.18C5884.11,-1647.3 5884.01,-1647.39 5883.89,-1647.39L5879.83,-1647.39C5879.71,-1647.39 5879.61,-1647.3 5879.61,-1647.18L5879.61,-1646.92C5879.61,-1646.81 5879.71,-1646.71 5879.83,-1646.71L5881.41,-1646.71C5881.47,-1646.71 5881.52,-1646.67 5881.52,-1646.6L5881.52,-1640.12C5881.52,-1640 5881.61,-1639.91 5881.73,-1639.91Z" style="fill-rule:nonzero;"/>
            <path d="M5885.57,-1639.91L5885.83,-1639.91C5885.94,-1639.91 5886.04,-1640 5886.04,-1640.12L5886.04,-1642.95C5886.04,-1643.02 5886.08,-1643.06 5886.15,-1643.06L5887.12,-1643.06C5887.24,-1643.06 5887.29,-1643 5887.32,-1642.93L5888.76,-1640.12C5888.82,-1639.99 5888.9,-1639.91 5889.07,-1639.91L5889.31,-1639.91C5889.48,-1639.91 5889.58,-1640.08 5889.5,-1640.25L5888.14,-1642.9C5888.05,-1643.06 5888.06,-1643.14 5888.22,-1643.22C5888.93,-1643.59 5889.53,-1644.28 5889.53,-1645.23C5889.53,-1646.53 5888.57,-1647.39 5887.39,-1647.39L5885.57,-1647.39C5885.45,-1647.39 5885.36,-1647.3 5885.36,-1647.18L5885.36,-1640.12C5885.36,-1640 5885.45,-1639.91 5885.57,-1639.91ZM5886.04,-1643.85L5886.04,-1646.6C5886.04,-1646.67 5886.08,-1646.71 5886.15,-1646.71L5887.39,-1646.71C5888.18,-1646.71 5888.82,-1646.14 5888.82,-1645.23C5888.82,-1644.42 5888.18,-1643.75 5887.39,-1643.75L5886.15,-1643.75C5886.08,-1643.75 5886.04,-1643.79 5886.04,-1643.85Z" style="fill-rule:nonzero;"/>
            <path d="M5891.39,-1639.91L5891.65,-1639.91C5891.76,-1639.91 5891.86,-1640 5891.86,-1640.12L5891.86,-1647.18C5891.86,-1647.3 5891.76,-1647.39 5891.65,-1647.39L5891.39,-1647.39C5891.27,-1647.39 5891.18,-1647.3 5891.18,-1647.18L5891.18,-1640.12C5891.18,-1640 5891.27,-1639.91 5891.39,-1639.91Z" style="fill-rule:nonzero;"/>
            <path d="M5894.11,-1639.91L5895.99,-1639.91C5897.15,-1639.91 5898.12,-1640.85 5898.12,-1642.09C5898.12,-1642.74 5897.79,-1643.39 5897.28,-1643.75C5897.2,-1643.81 5897.2,-1643.91 5897.28,-1643.98C5897.71,-1644.34 5897.97,-1644.88 5897.97,-1645.4C5897.97,-1646.56 5897.08,-1647.39 5895.99,-1647.39L5894.11,-1647.39C5893.99,-1647.39 5893.89,-1647.3 5893.89,-1647.18L5893.89,-1640.12C5893.89,-1640 5893.99,-1639.91 5894.11,-1639.91ZM5894.58,-1640.7L5894.58,-1643.39C5894.58,-1643.46 5894.62,-1643.5 5894.68,-1643.5L5895.99,-1643.5C5896.78,-1643.5 5897.41,-1642.86 5897.41,-1642.06C5897.41,-1641.24 5896.78,-1640.59 5895.99,-1640.59L5894.68,-1640.59C5894.62,-1640.59 5894.58,-1640.63 5894.58,-1640.7ZM5894.58,-1644.28L5894.58,-1646.6C5894.58,-1646.67 5894.62,-1646.71 5894.68,-1646.71L5896.03,-1646.71C5896.72,-1646.71 5897.26,-1646.13 5897.26,-1645.43C5897.26,-1644.73 5896.72,-1644.17 5896.03,-1644.17L5894.68,-1644.17C5894.62,-1644.17 5894.58,-1644.22 5894.58,-1644.28Z" style="fill-rule:nonzero;"/>
            <path d="M5901.97,-1639.8C5903.18,-1639.8 5904.16,-1640.57 5904.16,-1641.99L5904.16,-1647.18C5904.16,-1647.3 5904.06,-1647.39 5903.95,-1647.39L5903.69,-1647.39C5903.57,-1647.39 5903.48,-1647.3 5903.48,-1647.18L5903.48,-1641.99C5903.48,-1641 5902.81,-1640.48 5901.97,-1640.48C5901.12,-1640.48 5900.46,-1641 5900.46,-1641.99L5900.46,-1647.18C5900.46,-1647.3 5900.36,-1647.39 5900.25,-1647.39L5899.99,-1647.39C5899.87,-1647.39 5899.78,-1647.3 5899.78,-1647.18L5899.78,-1641.99C5899.78,-1640.57 5900.76,-1639.8 5901.97,-1639.8Z" style="fill-rule:nonzero;"/>
            <path d="M5907.48,-1639.91L5907.73,-1639.91C5907.85,-1639.91 5907.95,-1640 5907.95,-1640.12L5907.95,-1646.6C5907.95,-1646.67 5907.99,-1646.71 5908.05,-1646.71L5909.64,-1646.71C5909.76,-1646.71 5909.85,-1646.81 5909.85,-1646.92L5909.85,-1647.18C5909.85,-1647.3 5909.76,-1647.39 5909.64,-1647.39L5905.57,-1647.39C5905.45,-1647.39 5905.36,-1647.3 5905.36,-1647.18L5905.36,-1646.92C5905.36,-1646.81 5905.45,-1646.71 5905.57,-1646.71L5907.16,-1646.71C5907.22,-1646.71 5907.26,-1646.67 5907.26,-1646.6L5907.26,-1640.12C5907.26,-1640 5907.36,-1639.91 5907.48,-1639.91Z" style="fill-rule:nonzero;"/>
            <path d="M5911.32,-1639.91L5911.57,-1639.91C5911.69,-1639.91 5911.79,-1640 5911.79,-1640.12L5911.79,-1647.18C5911.79,-1647.3 5911.69,-1647.39 5911.57,-1647.39L5911.32,-1647.39C5911.2,-1647.39 5911.1,-1647.3 5911.1,-1647.18L5911.1,-1640.12C5911.1,-1640 5911.2,-1639.91 5911.32,-1639.91Z" style="fill-rule:nonzero;"/>
            <path d="M5916.06,-1639.8C5917.11,-1639.8 5917.87,-1640.42 5918.23,-1641.24C5918.46,-1641.8 5918.47,-1642.65 5918.47,-1643.65C5918.47,-1644.64 5918.46,-1645.5 5918.23,-1646.06C5917.87,-1646.88 5917.11,-1647.5 5916.06,-1647.5C5915,-1647.5 5914.24,-1646.88 5913.88,-1646.06C5913.64,-1645.49 5913.64,-1644.64 5913.64,-1643.65C5913.64,-1642.65 5913.64,-1641.81 5913.88,-1641.24C5914.24,-1640.42 5915,-1639.8 5916.06,-1639.8ZM5914.35,-1643.65C5914.35,-1644.44 5914.35,-1645.29 5914.55,-1645.77C5914.84,-1646.48 5915.44,-1646.82 5916.06,-1646.82C5916.68,-1646.82 5917.27,-1646.48 5917.56,-1645.77C5917.76,-1645.3 5917.76,-1644.44 5917.76,-1643.65C5917.76,-1642.86 5917.76,-1642 5917.56,-1641.53C5917.27,-1640.82 5916.68,-1640.48 5916.06,-1640.48C5915.44,-1640.48 5914.84,-1640.82 5914.55,-1641.53C5914.35,-1642.01 5914.35,-1642.86 5914.35,-1643.65Z" style="fill-rule:nonzero;"/>
            <path d="M5920.54,-1639.91L5920.79,-1639.91C5920.91,-1639.91 5921.01,-1640 5921.01,-1640.12L5921.01,-1645.9C5921.01,-1645.99 5921.14,-1646.03 5921.18,-1645.92L5923.55,-1640.09C5923.62,-1639.94 5923.66,-1639.91 5923.78,-1639.91L5924.39,-1639.91C5924.51,-1639.91 5924.6,-1640 5924.6,-1640.12L5924.6,-1647.18C5924.6,-1647.3 5924.51,-1647.39 5924.39,-1647.39L5924.13,-1647.39C5924.01,-1647.39 5923.92,-1647.3 5923.92,-1647.18L5923.92,-1641.4C5923.92,-1641.31 5923.79,-1641.28 5923.75,-1641.38L5921.37,-1647.21C5921.31,-1647.36 5921.26,-1647.39 5921.15,-1647.39L5920.54,-1647.39C5920.42,-1647.39 5920.32,-1647.3 5920.32,-1647.18L5920.32,-1640.12C5920.32,-1640 5920.42,-1639.91 5920.54,-1639.91Z" style="fill-rule:nonzero;"/>
        </g>
    </g>
</svg>
