<?xml version="1.0" standalone="no"?>
<!DOCTYPE svg PUBLIC "-//W3C//DTD SVG 20010904//EN"
 "http://www.w3.org/TR/2001/REC-SVG-20010904/DTD/svg10.dtd">
<svg version="1.0" xmlns="http://www.w3.org/2000/svg"
 width="2521.000000pt" height="2521.000000pt" viewBox="0 0 2521.000000 2521.000000"
 preserveAspectRatio="xMidYMid meet">
<metadata>
Created by potrace 1.14, written by Peter Selinger 2001-2017
</metadata>
<g transform="translate(0.000000,2521.000000) scale(0.100000,-0.100000)"
fill="#000000" stroke="none">
<path d="M7495 19891 c-52 -24 -249 -225 -270 -273 -19 -48 -19 -108 0 -156
11 -26 667 -689 2308 -2329 l2292 -2293 -3856 0 c-2856 0 -3865 -3 -3890 -11
-54 -19 -100 -58 -121 -106 -17 -39 -19 -63 -16 -222 3 -176 3 -178 30 -214
16 -19 43 -46 60 -59 l33 -23 2078 -3 c1350 -1 2077 -6 2077 -12 0 -5 -16 -48
-36 -96 -376 -909 -378 -2054 -4 -2963 148 -360 346 -667 585 -906 284 -285
588 -449 930 -501 122 -19 372 -13 485 11 541 117 1021 535 1336 1165 244 490
366 1004 381 1610 14 556 -78 1085 -268 1553 -27 67 -49 125 -49 130 0 4 459
7 1020 7 709 0 1020 -3 1020 -11 0 -5 -14 -42 -31 -82 -181 -423 -289 -982
-289 -1496 0 -955 322 -1842 865 -2386 284 -285 588 -449 930 -501 122 -19
372 -13 485 11 535 116 1012 528 1324 1144 201 396 311 773 373 1271 25 204
25 705 0 910 -46 377 -127 707 -248 1003 -27 67 -49 125 -49 130 0 4 930 7
2068 7 1984 0 2069 1 2107 19 49 22 91 69 106 119 6 23 9 101 7 203 -3 164 -3
166 -32 207 -17 26 -47 51 -79 67 l-51 25 -3865 0 -3866 0 2297 2298 c1644
1644 2302 2308 2313 2334 18 44 19 79 4 132 -14 50 -214 259 -274 287 -51 24
-119 24 -170 0 -28 -13 -780 -759 -2490 -2470 l-2450 -2451 -2455 2455 c-1756
1755 -2466 2459 -2492 2470 -50 20 -114 19 -163 -4z"/>
<path d="M3856 12796 c-49 -18 -94 -60 -117 -111 -22 -48 -25 -180 -9 -496 81
-1620 577 -3138 1465 -4479 1305 -1971 3355 -3351 5657 -3809 651 -130 1199
-179 1888 -168 457 7 707 26 1115 83 1753 246 3413 1030 4730 2234 173 158
524 514 666 675 1189 1351 1936 2996 2159 4755 44 349 75 827 68 1066 -3 124
-4 133 -31 171 -15 22 -46 50 -70 64 -38 22 -55 24 -193 27 -175 4 -219 -4
-274 -54 -61 -55 -68 -88 -74 -349 -29 -1124 -270 -2177 -731 -3195 -1086
-2397 -3280 -4150 -5850 -4674 -1560 -317 -3186 -179 -4650 397 -2983 1173
-5020 3956 -5225 7137 -6 91 -14 264 -18 385 -8 217 -8 220 -35 261 -15 22
-46 51 -70 65 -39 22 -53 24 -202 26 -119 2 -170 -1 -199 -11z"/>
</g>
</svg>
