<?xml version="1.0" standalone="no"?>
<!DOCTYPE svg PUBLIC "-//W3C//DTD SVG 20010904//EN"
 "http://www.w3.org/TR/2001/REC-SVG-20010904/DTD/svg10.dtd">
<svg version="1.0" xmlns="http://www.w3.org/2000/svg"
 width="1007.000000pt" height="1007.000000pt" viewBox="0 0 1007.000000 1007.000000"
 preserveAspectRatio="xMidYMid meet">
<metadata>
Created by potrace 1.11, written by Peter Selinger 2001-2013
</metadata>
<g transform="translate(0.000000,1007.000000) scale(0.100000,-0.100000)"
fill="#000000" stroke="none">
<path d="M0 5035 l0 -5035 5035 0 5035 0 0 5035 0 5035 -5035 0 -5035 0 0
-5035z m4168 4530 c92 -28 189 -121 214 -208 17 -61 14 -154 -7 -217 -14 -42
-33 -70 -79 -115 -108 -106 -52 -99 -868 -103 l-708 -3 0 -2082 0 -2082 2080
2080 2080 2080 -297 5 -298 5 -62 29 c-221 102 -271 375 -98 535 25 23 68 53
93 64 l47 22 1074 3 c924 2 1082 0 1126 -12 298 -87 314 -501 23 -619 -49 -20
-74 -22 -354 -25 l-301 -4 -1566 -1566 -1566 -1567 1583 -2315 1583 -2315 619
-5 619 -5 57 -28 c72 -35 140 -110 168 -185 29 -76 24 -194 -11 -267 -30 -63
-90 -123 -154 -155 l-50 -25 -1250 0 -1250 0 -47 23 c-120 60 -188 159 -196
285 -3 57 0 84 18 129 28 76 104 159 178 195 56 27 61 28 277 33 l221 5 -1398
2050 c-769 1128 -1407 2061 -1417 2075 l-19 25 -756 -755 -756 -755 0 -1322 0
-1323 700 0 c688 0 700 0 757 -21 79 -29 172 -123 199 -199 56 -163 -15 -344
-164 -417 l-57 -28 -1590 0 -1590 0 -57 28 c-72 35 -140 110 -168 185 -30 78
-24 185 12 257 36 70 121 147 191 173 56 22 70 22 577 22 l520 0 0 3885 0
3884 -527 3 -528 3 -60 28 c-73 34 -138 95 -172 162 -35 66 -42 172 -19 243
19 57 86 138 142 173 81 49 16 48 1675 48 1366 1 1562 -1 1607 -14z"/>
</g>
</svg>
