<?xml version="1.0" encoding="UTF-8"?>
<svg width="80px" height="80px" viewBox="0 0 80 80" version="1.1" xmlns="http://www.w3.org/2000/svg" xmlns:xlink="http://www.w3.org/1999/xlink">
    <!-- Generator: Sketch 63.1 (92452) - https://sketch.com -->
    <title>adrien-teil</title>
    <desc>Created with Sketch.</desc>
    <defs>
        <rect id="path-1" x="0" y="0" width="80" height="80" rx="40"></rect>
    </defs>
    <g id="adrien-teil" stroke="none" stroke-width="1" fill="none" fill-rule="evenodd">
        <mask id="mask-2" fill="white">
            <use xlink:href="#path-1"></use>
        </mask>
        <rect stroke="#FFFFFF" stroke-width="2" x="1" y="1" width="78" height="78" rx="39"></rect>
        <ellipse id="Oval-Copy" fill="#000000" mask="url(#mask-2)" cx="40" cy="32" rx="66" ry="11"></ellipse>
        <circle id="center" fill="#FFFFFF" mask="url(#mask-2)" cx="49.1" cy="32" r="7"></circle>
        <circle id="left" fill="#FFFFFF" mask="url(#mask-2)" cx="30.9" cy="32" r="7"></circle>
        <circle id="center" fill="#000000" mask="url(#mask-2)" cx="49" cy="32" r="5"></circle>
        <circle id="left" fill="#000000" mask="url(#mask-2)" cx="31" cy="32" r="5"></circle>
        <rect id="Rectangle" fill="#000000" mask="url(#mask-2)" transform="translate(40.000000, 60.000000) scale(1, -1) translate(-40.000000, -60.000000) " x="18" y="59" width="44" height="2" rx="1"></rect>
        <rect id="Rectangle-Copy" fill="#000000" mask="url(#mask-2)" transform="translate(40.000000, 48.000000) scale(1, -1) translate(-40.000000, -48.000000) " x="35" y="45" width="10" height="6" rx="3"></rect>
        <g id="Group" mask="url(#mask-2)" fill="#000000">
            <g transform="translate(13.000000, 18.000000)">
                <rect id="Rectangle" x="5" y="0" width="3" height="29" rx="1.5"></rect>
                <rect id="Rectangle-Copy-2" x="0" y="0" width="3" height="29" rx="1.5"></rect>
                <rect id="Rectangle-Copy-3" x="51" y="0" width="3" height="29" rx="1.5"></rect>
                <rect id="Rectangle-Copy-4" x="46" y="0" width="3" height="29" rx="1.5"></rect>
            </g>
        </g>
        <circle id="Oval" mask="url(#mask-2)" cx="40" cy="40" r="40"></circle>
    </g>
</svg>