<?xml version="1.0" encoding="UTF-8"?>
<svg width="80px" height="80px" viewBox="0 0 80 80" version="1.1" xmlns="http://www.w3.org/2000/svg" xmlns:xlink="http://www.w3.org/1999/xlink">
    <!-- Generator: Sketch 63.1 (92452) - https://sketch.com -->
    <title>alan-briand</title>
    <desc>Created with Sketch.</desc>
    <g id="alan-briand" stroke="none" stroke-width="1" fill="none" fill-rule="evenodd">
        <rect id="Rectangle" stroke="#000000" stroke-width="2" fill="#000000" x="1" y="1" width="78" height="78" rx="39"></rect>
        <g id="Group" transform="translate(14.000000, 15.000000)">
            <ellipse id="center" fill="#FFFFFF" cx="40.5" cy="20" rx="11.5" ry="20"></ellipse>
            <ellipse id="left" fill="#FFFFFF" cx="11.5" cy="20" rx="11.5" ry="20"></ellipse>
            <ellipse id="center" fill="#000000" cx="40.5" cy="20" rx="5.5" ry="10"></ellipse>
            <ellipse id="left" fill="#000000" cx="11.5" cy="20" rx="5.5" ry="10"></ellipse>
        </g>
        <g id="Group-2" transform="translate(17.000000, 56.000000)">
            <rect id="Rectangle" fill="#FFFFFF" transform="translate(23.000000, 11.000000) scale(1, -1) translate(-23.000000, -11.000000) " x="11" y="9" width="24" height="4" rx="2"></rect>
            <rect id="Rectangle-Copy" fill="#FFFFFF" transform="translate(23.000000, 3.000000) scale(1, -1) translate(-23.000000, -3.000000) " x="18" y="0" width="10" height="6" rx="3"></rect>
            <line x1="13" y1="5" x2="7.21644966e-16" y2="3" id="Line" stroke="#FFFFFF" stroke-width="2" stroke-linecap="round"></line>
            <line x1="46" y1="5" x2="32" y2="3" id="Line" stroke="#FFFFFF" stroke-width="2" stroke-linecap="round" transform="translate(39.000000, 4.000000) scale(-1, 1) translate(-39.000000, -4.000000) "></line>
        </g>
        <circle id="Oval" cx="40" cy="40" r="40"></circle>
    </g>
</svg>