<?xml version="1.0" encoding="UTF-8"?>
<svg width="80px" height="80px" viewBox="0 0 80 80" version="1.1" xmlns="http://www.w3.org/2000/svg" xmlns:xlink="http://www.w3.org/1999/xlink">
    <!-- Generator: Sketch 63.1 (92452) - https://sketch.com -->
    <title>alexandre-rakovsky</title>
    <desc>Created with Sketch.</desc>
    <g id="alexandre-rakovsky" stroke="none" stroke-width="1" fill="none" fill-rule="evenodd">
        <rect id="Rectangle" stroke="#FFFFFF" stroke-width="2" fill="#FFFFFF" x="1" y="1" width="78" height="78" rx="39"></rect>
        <path d="M26,32 L34,32 C35.6568542,32 37,33.3431458 37,35 C37,36.6568542 35.6568542,38 34,38 L26,38 C24.3431458,38 23,36.6568542 23,35 C23,33.3431458 24.3431458,32 26,32 Z" id="Rectangle" fill="#000000" transform="translate(30.000000, 35.000000) scale(1, -1) translate(-30.000000, -35.000000) "></path>
        <path d="M46,32 L54,32 C55.6568542,32 57,33.3431458 57,35 C57,36.6568542 55.6568542,38 54,38 L46,38 C44.3431458,38 43,36.6568542 43,35 C43,33.3431458 44.3431458,32 46,32 Z" id="Rectangle-Copy" fill="#000000" transform="translate(50.000000, 35.000000) scale(1, -1) rotate(-180.000000) translate(-50.000000, -35.000000) "></path>
    </g>
</svg>