<?xml version="1.0" encoding="UTF-8"?>
<svg width="80px" height="80px" viewBox="0 0 80 80" version="1.1" xmlns="http://www.w3.org/2000/svg" xmlns:xlink="http://www.w3.org/1999/xlink">
    <!-- Generator: Sketch 63.1 (92452) - https://sketch.com -->
    <title>alexandre-rakovsky</title>
    <desc>Created with Sketch.</desc>
    <g id="alexandre-rakovsky" stroke="none" stroke-width="1" fill="none" fill-rule="evenodd">
        <rect id="Rectangle" fill="#000000" x="0" y="0" width="80" height="80" rx="40"></rect>
        <rect id="Rectangle-Copy-3" stroke="#000000" stroke-width="2" fill="#FFFFFF" transform="translate(52.500000, 26.000000) rotate(-360.000000) translate(-52.500000, -26.000000) " x="42" y="24" width="21" height="4" rx="2"></rect>
        <path d="M58,59.0710678 C58,55.1658249 54.8659932,52 51,52 C47.1340068,52 44,55.1658249 44,59.0710678 C44,62.9763107 58,62.9763107 58,59.0710678 Z" id="Oval" fill="#FFFFFF" transform="translate(51.000000, 57.000000) rotate(-195.000000) translate(-51.000000, -57.000000) "></path>
        <g id="Group" transform="translate(14.000000, 22.000000)">
            <circle id="Oval-Copy" stroke="#FFFFFF" stroke-width="4" cx="11" cy="11" r="11"></circle>
            <circle id="Oval" fill="#FFFFFF" cx="11" cy="11" r="3"></circle>
        </g>
        <path d="M51,30 L59,30 C60.6568542,30 62,31.3431458 62,33 C62,34.6568542 60.6568542,36 59,36 L51,36 C49.3431458,36 48,34.6568542 48,33 C48,31.3431458 49.3431458,30 51,30 Z" id="Rectangle-Copy" fill="#FFFFFF" transform="translate(55.000000, 33.000000) scale(1, -1) rotate(-180.000000) translate(-55.000000, -33.000000) "></path>
        <rect id="Rectangle" fill="#FFFFFF" transform="translate(44.000000, 55.000000) scale(1, -1) rotate(-345.000000) translate(-44.000000, -55.000000) " x="29" y="53" width="30" height="4" rx="2"></rect>
    </g>
</svg>