<?xml version="1.0" encoding="UTF-8"?>
<svg width="80px" height="80px" viewBox="0 0 80 80" version="1.1" xmlns="http://www.w3.org/2000/svg" xmlns:xlink="http://www.w3.org/1999/xlink">
    <!-- Generator: Sketch 63.1 (92452) - https://sketch.com -->
    <title>aude-chagnon</title>
    <desc>Created with Sketch.</desc>
    <defs>
        <rect id="path-1" x="0" y="0" width="80" height="80" rx="40"></rect>
    </defs>
    <g id="aude-chagnon" stroke="none" stroke-width="1" fill="none" fill-rule="evenodd">
        <mask id="mask-2" fill="white">
            <use xlink:href="#path-1"></use>
        </mask>
        <rect stroke="#000000" stroke-width="2" x="1" y="1" width="78" height="78" rx="39"></rect>
        <circle id="center" fill="#FFFFFF" mask="url(#mask-2)" cx="55.6" cy="33" r="12"></circle>
        <circle id="left" fill="#FFFFFF" mask="url(#mask-2)" cx="24.4" cy="33" r="12"></circle>
        <circle id="center" fill="#000000" mask="url(#mask-2)" cx="53" cy="33" r="5"></circle>
        <circle id="left" fill="#000000" mask="url(#mask-2)" cx="27" cy="33" r="5"></circle>
        <rect id="Rectangle" fill="#FFFFFF" mask="url(#mask-2)" transform="translate(40.000000, 61.000000) scale(1, -1) translate(-40.000000, -61.000000) " x="24" y="56" width="32" height="10" rx="5"></rect>
        <rect id="Rectangle-Copy" fill="#FFFFFF" mask="url(#mask-2)" transform="translate(40.000000, 46.000000) scale(1, -1) rotate(-90.000000) translate(-40.000000, -46.000000) " x="35" y="43" width="10" height="6" rx="3"></rect>
        <circle id="Oval" stroke="#FFFFFF" stroke-width="2" mask="url(#mask-2)" cx="64" cy="48" r="6"></circle>
        <circle id="Oval-Copy" stroke="#FFFFFF" stroke-width="2" mask="url(#mask-2)" cx="16" cy="48" r="6"></circle>
        <rect id="Rectangle" fill="#FFFFFF" mask="url(#mask-2)" transform="translate(40.000000, 13.000000) scale(1, -1) translate(-40.000000, -13.000000) " x="18" y="12" width="44" height="2" rx="1"></rect>
        <rect id="Rectangle" fill="#FFFFFF" mask="url(#mask-2)" transform="translate(40.000000, 8.000000) scale(1, -1) translate(-40.000000, -8.000000) " x="27" y="7" width="26" height="2" rx="1"></rect>
        <circle id="Oval" mask="url(#mask-2)" cx="40" cy="40" r="40"></circle>
    </g>
</svg>