<?xml version="1.0" encoding="UTF-8"?>
<svg width="80px" height="80px" viewBox="0 0 80 80" version="1.1" xmlns="http://www.w3.org/2000/svg" xmlns:xlink="http://www.w3.org/1999/xlink">
    <!-- Generator: Sketch 63.1 (92452) - https://sketch.com -->
    <title>audrey-bartolo</title>
    <desc>Created with Sketch.</desc>
    <g id="audrey-bartolo" stroke="none" stroke-width="1" fill="none" fill-rule="evenodd">
        <rect id="Mask" stroke="#000000" stroke-width="2" fill="#000000" transform="translate(40.000000, 40.000000) rotate(-180.000000) translate(-40.000000, -40.000000) " x="1" y="1" width="78" height="78" rx="39"></rect>
        <ellipse id="Oval" fill="#FFFFFF" transform="translate(57.500000, 40.091391) rotate(-171.000000) translate(-57.500000, -40.091391) " cx="57.5" cy="40.0913914" rx="15.4840924" ry="10.9635955"></ellipse>
        <circle id="Oval" fill="#000000" cx="54" cy="39" r="4"></circle>
        <circle id="Oval" fill="#FFFFFF" cx="42" cy="34" r="1"></circle>
        <circle id="Oval-Copy-9" fill="#FFFFFF" cx="37" cy="34" r="1"></circle>
        <circle id="Oval-Copy" fill="#FFFFFF" cx="46.5" cy="30.5" r="1.5"></circle>
        <circle id="Oval-Copy-2" fill="#FFFFFF" cx="53" cy="28" r="2"></circle>
        <circle id="Oval-Copy-6" fill="#FFFFFF" cx="25" cy="28" r="2"></circle>
        <circle id="Oval-Copy-3" fill="#FFFFFF" cx="59.5" cy="26.5" r="1.5"></circle>
        <circle id="Oval-Copy-7" fill="#FFFFFF" cx="18.5" cy="26.5" r="1.5"></circle>
        <circle id="Oval-Copy-4" fill="#FFFFFF" cx="65" cy="27" r="1"></circle>
        <circle id="Oval-Copy-8" fill="#FFFFFF" cx="13" cy="27" r="1"></circle>
        <ellipse id="Oval" fill="#FFFFFF" transform="translate(21.484092, 40.091391) scale(-1, 1) rotate(-171.000000) translate(-21.484092, -40.091391) " cx="21.4840924" cy="40.0913914" rx="15.4840924" ry="10.9635955"></ellipse>
        <g id="cicatrice" transform="translate(28.500000, 36.500000) rotate(-330.000000) translate(-28.500000, -36.500000) translate(24.000000, 8.000000)" stroke="#FFFFFF" stroke-linecap="round">
            <line x1="4.5" y1="0" x2="4.5" y2="56.5" id="Line-5"></line>
            <g id="Group-5" transform="translate(0.000000, 6.500000)">
                <line x1="7" y1="1" x2="2" y2="1" id="Line-5"></line>
                <line x1="9" y1="11" x2="1" y2="11" id="Line-5-Copy"></line>
                <line x1="9" y1="21" x2="0" y2="21" id="Line-5-Copy-2"></line>
                <line x1="9" y1="31" x2="1" y2="31" id="Line-5-Copy-3"></line>
                <line x1="7" y1="41" x2="2" y2="41" id="Line-5-Copy-4"></line>
            </g>
        </g>
        <rect id="Rectangle" fill="#FFFFFF" transform="translate(40.000000, 67.000000) scale(1, -1) rotate(-360.000000) translate(-40.000000, -67.000000) " x="21" y="66" width="38" height="2" rx="1"></rect>
        <circle id="Oval-Copy-5" fill="#000000" cx="25" cy="39" r="4"></circle>
    </g>
</svg>