<?xml version="1.0" encoding="UTF-8"?>
<svg width="80px" height="80px" viewBox="0 0 80 80" version="1.1" xmlns="http://www.w3.org/2000/svg" xmlns:xlink="http://www.w3.org/1999/xlink">
    <!-- Generator: Sketch 63.1 (92452) - https://sketch.com -->
    <title>audrey-bartolo</title>
    <desc>Created with Sketch.</desc>
    <defs>
        <rect id="path-1" x="0" y="0" width="80" height="80" rx="40"></rect>
        <rect id="path-3" x="0" y="0" width="80" height="80" rx="40"></rect>
    </defs>
    <g id="audrey-bartolo" stroke="none" stroke-width="1" fill="none" fill-rule="evenodd">
        <rect id="Mask" stroke="#000000" stroke-width="2" fill="#000000" transform="translate(40.000000, 40.000000) rotate(-180.000000) translate(-40.000000, -40.000000) " x="1" y="1" width="78" height="78" rx="39"></rect>
        <g id="Group-4">
            <mask id="mask-2" fill="white">
                <use xlink:href="#path-1"></use>
            </mask>
            <g id="Mask-Copy" transform="translate(40.000000, 40.000000) rotate(-180.000000) translate(-40.000000, -40.000000) "></g>
            <g id="Group" mask="url(#mask-2)" fill="#FFFFFF">
                <g transform="translate(17.000000, 66.000000)">
                    <rect id="Rectangle-Copy" transform="translate(19.500000, 8.000000) scale(1, -1) rotate(180.000000) translate(-19.500000, -8.000000) " x="16" y="0" width="7" height="16" rx="3.5"></rect>
                    <rect id="Rectangle-Copy-2" transform="translate(12.000000, 8.500000) scale(1, -1) rotate(180.000000) translate(-12.000000, -8.500000) " x="9" y="1" width="6" height="15" rx="3"></rect>
                    <rect id="Rectangle-Copy-3" transform="translate(6.000000, 9.500000) scale(1, -1) rotate(180.000000) translate(-6.000000, -9.500000) " x="4" y="3" width="4" height="13" rx="2"></rect>
                    <rect id="Rectangle-Copy-4" transform="translate(1.500000, 10.000000) scale(1, -1) rotate(180.000000) translate(-1.500000, -10.000000) " x="-5.68434189e-14" y="4" width="3" height="12" rx="1.5"></rect>
                    <rect id="Rectangle-Copy" transform="translate(27.500000, 8.000000) scale(-1, -1) rotate(180.000000) translate(-27.500000, -8.000000) " x="24" y="0" width="7" height="16" rx="3.5"></rect>
                    <rect id="Rectangle-Copy-2" transform="translate(35.000000, 8.500000) scale(-1, -1) rotate(180.000000) translate(-35.000000, -8.500000) " x="32" y="1" width="6" height="15" rx="3"></rect>
                    <rect id="Rectangle-Copy-3" transform="translate(41.000000, 9.500000) scale(-1, -1) rotate(180.000000) translate(-41.000000, -9.500000) " x="39" y="3" width="4" height="13" rx="2"></rect>
                    <rect id="Rectangle-Copy-4" transform="translate(45.500000, 10.000000) scale(-1, -1) rotate(180.000000) translate(-45.500000, -10.000000) " x="44" y="4" width="3" height="12" rx="1.5"></rect>
                </g>
            </g>
        </g>
        <g id="Group-4" transform="translate(40.000000, 40.000000) rotate(-180.000000) translate(-40.000000, -40.000000) translate(0.000000, -0.000000)">
            <mask id="mask-4" fill="white">
                <use xlink:href="#path-3"></use>
            </mask>
            <g id="Mask-Copy" transform="translate(40.000000, 40.000000) rotate(-180.000000) translate(-40.000000, -40.000000) "></g>
            <g id="Group" mask="url(#mask-4)" fill="#FFFFFF">
                <g transform="translate(17.000000, 66.000000)">
                    <rect id="Rectangle-Copy" transform="translate(19.500000, 8.000000) scale(1, -1) rotate(180.000000) translate(-19.500000, -8.000000) " x="16" y="0" width="7" height="16" rx="3.5"></rect>
                    <rect id="Rectangle-Copy-2" transform="translate(12.000000, 8.500000) scale(1, -1) rotate(180.000000) translate(-12.000000, -8.500000) " x="9" y="1" width="6" height="15" rx="3"></rect>
                    <rect id="Rectangle-Copy-3" transform="translate(6.000000, 9.500000) scale(1, -1) rotate(180.000000) translate(-6.000000, -9.500000) " x="4" y="3" width="4" height="13" rx="2"></rect>
                    <rect id="Rectangle-Copy-4" transform="translate(1.500000, 10.000000) scale(1, -1) rotate(180.000000) translate(-1.500000, -10.000000) " x="-5.68434189e-14" y="4" width="3" height="12" rx="1.5"></rect>
                    <rect id="Rectangle-Copy" transform="translate(27.500000, 8.000000) scale(-1, -1) rotate(180.000000) translate(-27.500000, -8.000000) " x="24" y="0" width="7" height="16" rx="3.5"></rect>
                    <rect id="Rectangle-Copy-2" transform="translate(35.000000, 8.500000) scale(-1, -1) rotate(180.000000) translate(-35.000000, -8.500000) " x="32" y="1" width="6" height="15" rx="3"></rect>
                    <rect id="Rectangle-Copy-3" transform="translate(41.000000, 9.500000) scale(-1, -1) rotate(180.000000) translate(-41.000000, -9.500000) " x="39" y="3" width="4" height="13" rx="2"></rect>
                    <rect id="Rectangle-Copy-4" transform="translate(45.500000, 10.000000) scale(-1, -1) rotate(180.000000) translate(-45.500000, -10.000000) " x="44" y="4" width="3" height="12" rx="1.5"></rect>
                </g>
            </g>
        </g>
        <g id="Group-2" transform="translate(5.000000, 24.000000)" fill="#FFFFFF">
            <ellipse id="Oval" transform="translate(52.484092, 15.953689) rotate(-171.000000) translate(-52.484092, -15.953689) " cx="52.4840924" cy="15.9536895" rx="15.4104975" ry="13.6295487"></ellipse>
            <ellipse id="Oval" transform="translate(17.484092, 15.953689) scale(-1, 1) rotate(-171.000000) translate(-17.484092, -15.953689) " cx="17.4840924" cy="15.9536895" rx="15.4104975" ry="13.6295487"></ellipse>
        </g>
        <circle id="Oval" fill="#000000" cx="54.4840924" cy="40.3722041" r="8.5"></circle>
        <circle id="Oval" fill="#000000" transform="translate(25.484092, 40.372204) scale(-1, 1) translate(-25.484092, -40.372204) " cx="25.4840924" cy="40.3722041" r="8.5"></circle>
    </g>
</svg>