<?xml version="1.0" encoding="UTF-8"?>
<svg width="80px" height="80px" viewBox="0 0 80 80" version="1.1" xmlns="http://www.w3.org/2000/svg" xmlns:xlink="http://www.w3.org/1999/xlink">
    <!-- Generator: Sketch 63.1 (92452) - https://sketch.com -->
    <title>avatar-bot</title>
    <desc>Created with Sketch.</desc>
    <g id="avatar-bot" stroke="none" stroke-width="1" fill="none" fill-rule="evenodd">
        <path d="M6.00042773,0 C2.68646486,0 0,2.68675145 0,6.00003528 C0,20.8440548 0,59.1560863 0,74.0000353 C0,77.3137424 2.68646486,80 6.00042773,80 L73.9993247,80 C76.5635076,80 78.8440356,78.3708042 79.6752429,75.9453195 C80.5071558,73.5198349 79.7048785,70.8342123 77.6797809,69.2614609 C62.4243748,57.4133667 40.0030162,40.0000706 40.0030162,40.0000706 C40.0030162,40.0000706 56.0503977,21.8174378 66.506393,9.97019032 C68.0673411,8.20136525 68.4470292,5.68253576 67.4768169,3.53200571 C66.5066047,1.38218122 64.3664222,0 62.0073599,0 C45.5026733,0 18.0626006,0 6.00042773,0 Z" id="Fill-1" fill="#FACC15"></path>
    </g>
</svg>