<?xml version="1.0" encoding="UTF-8"?>
<svg width="80px" height="80px" viewBox="0 0 80 80" version="1.1" xmlns="http://www.w3.org/2000/svg" xmlns:xlink="http://www.w3.org/1999/xlink">
    <!-- Generator: Sketch 63.1 (92452) - https://sketch.com -->
    <title>avatar-default</title>
    <desc>Created with Sketch.</desc>
    <g id="avatar-default" stroke="none" stroke-width="1" fill="none" fill-rule="evenodd">
        <circle id="Oval" fill="#FFFFFF" cx="40" cy="40" r="40"></circle>
        <path d="M79.9999143,40 C79.9999143,17.90861 62.09139,-7.7232241e-05 40,-7.7232241e-05 C17.90861,-7.7232241e-05 -8.57109192e-05,17.90861 -8.57109192e-05,40 C-8.57109192e-05,51.0131379 -0.100478545,5.56698506 39.1997607,5.63096069 C78.5,5.69493632 79.9999143,51.0782521 79.9999143,40 Z" id="Oval" fill="#000000"></path>
        <path d="M55,53 C59.9705627,53 64,51.8529255 64,42.2989688 C64,32.7450121 59.9705627,25 55,25 C50.0294373,25 46,32.7450121 46,42.2989688 C46,51.8529255 50.0294373,53 55,53 Z" id="center" stroke="#000000" stroke-width="2" fill="#FFFFFF"></path>
        <path d="M56,54 C59.3137085,54 62,53.2103659 62,46.3755425 C62,39.5407191 59.3137085,34 56,34 C52.6862915,34 50,39.5407191 50,46.3755425 C50,53.2103659 52.6862915,54 56,54 Z" id="center" fill="#000000"></path>
        <ellipse id="center" cx="57.5" cy="42" rx="2.5" ry="5"></ellipse>
        <path d="M24.3333333,53.3253878 C29.487991,53.3253878 33.6666667,52.1649831 33.6666667,42.5 C33.6666667,32.8350169 29.487991,25 24.3333333,25 C19.1786757,25 15,32.8350169 15,42.5 C15,52.1649831 19.1786757,53.3253878 24.3333333,53.3253878 Z" id="center" stroke="#000000" stroke-width="2" fill="#FFFFFF"></path>
        <path d="M24.8888889,53.5850439 C28.4548837,53.5850439 31.3456937,52.7954097 31.3456937,45.9605863 C31.3456937,39.125763 28.4548837,33.5850439 24.8888889,33.5850439 C21.3228941,33.5850439 18.4320841,39.125763 18.4320841,45.9605863 C18.4320841,52.7954097 21.3228941,53.5850439 24.8888889,53.5850439 Z" id="center" fill="#000000"></path>
        <ellipse id="center" cx="26.3888889" cy="42" rx="2.5" ry="5"></ellipse>
        <path d="M40,60 C42.2753208,60 44.1198327,59.3670507 44.1198327,57.0917299 C44.1198327,54.8164091 42.2753208,54 40,54 C37.7246792,54 35.8801673,54.8164091 35.8801673,57.0917299 C35.8801673,59.3670507 37.7246792,60 40,60 Z" id="Oval" stroke="#000000" stroke-width="2" fill="#FFFFFF"></path>
        <path d="M24.5,63.5 C31.0623914,65.2604097 36.1066216,66.1406146 39.6326904,66.1406146 C43.1587592,66.1406146 48.4478624,65.2604097 55.5,63.5" id="Line" stroke="#000000" stroke-width="2" stroke-linecap="round"></path>
        <path d="M36,71 C37.6935204,71.6666667 38.9952572,72 39.9052104,72 C40.8151637,72 42.1800935,71.6666667 44,71" id="Line" stroke="#000000" stroke-width="2" stroke-linecap="round" transform="translate(40.000000, 71.500000) rotate(-180.000000) translate(-40.000000, -71.500000) "></path>
        <path d="M47.0821034,27.2188379 C47.0821034,21.7188379 52.5821034,16.2188379 58.0821034,16.2188379 C63.5821034,16.2188379 69.0821034,21.7188379 69.0821034,27.2188379" id="Line-2" stroke="#000000" stroke-width="2" stroke-linecap="round" transform="translate(58.082103, 21.718838) rotate(12.000000) translate(-58.082103, -21.718838) "></path>
        <path d="M11,27.2188379 C11,21.7188379 16.5,16.2188379 22,16.2188379 C27.5,16.2188379 33,21.7188379 33,27.2188379" id="Line-2" stroke="#000000" stroke-width="2" stroke-linecap="round" transform="translate(22.000000, 21.718838) scale(-1, 1) rotate(12.000000) translate(-22.000000, -21.718838) "></path>
        <path d="M74.532,26.0988756 L74.7916064,26.550566 C77.0875103,30.6196146 78.8236415,35.1027592 80,40 L74.532,26.0988756 Z M34.5489951,13.0745418 C33.0358822,11.8598372 31.6718188,10.3594743 30.4568048,8.5734532 C24.4288439,7.95269348 18.391886,10.7615424 12.3459311,17 C6.2999762,23.2384576 2.18466583,30.9051243 0,40 L3.77360339,24 L20,6.46348279 C23.519712,4.5091502 26.6433133,3.18993504 29.3708039,2.50583732 C32.0982945,1.8217396 35.6413599,1.29208569 40,0.916875589 L40.6476792,0.974315433 C44.7109077,1.34543719 48.03808,1.85594449 50.6291961,2.50583732 C53.3566867,3.18993504 56.480288,4.5091502 60,6.46348279 L60,6.46348279 L72.3139139,20.4584378 L74.532,26.0988756 L74.4598122,25.9720903 C72.6699336,22.9019107 70.5551077,20.0721133 68.1153344,17.4826983 L67.6540689,17 C61.608114,10.7615424 55.5711561,7.95269348 49.5431952,8.5734532 C48.3281812,10.3594743 46.9641178,11.8598372 45.4510049,13.0745418 C43.937892,14.2892464 42.1208903,15.3425953 40,16.2345886 L40,16.2345886 C37.8791097,15.3425953 36.062108,14.2892464 34.5489951,13.0745418 Z" id="Combined-Shape" fill="#000000"></path>
        <ellipse id="Oval" stroke="#FFFFFF" stroke-width="2" fill="#000000" transform="translate(73.500000, 42.000000) rotate(-270.000000) translate(-73.500000, -42.000000) " cx="73.5" cy="42" rx="12" ry="5.5"></ellipse>
        <ellipse id="Oval" stroke="#FFFFFF" stroke-width="2" fill="#000000" transform="translate(6.500000, 42.000000) rotate(-270.000000) translate(-6.500000, -42.000000) " cx="6.5" cy="42" rx="12" ry="5.5"></ellipse>
        <circle id="Oval" stroke="#000000" stroke-width="2" cx="40" cy="40" r="39"></circle>
    </g>
</svg>