<?xml version="1.0" encoding="UTF-8"?>
<svg width="80px" height="80px" viewBox="0 0 80 80" version="1.1" xmlns="http://www.w3.org/2000/svg" xmlns:xlink="http://www.w3.org/1999/xlink">
    <!-- Generator: Sketch 63.1 (92452) - https://sketch.com -->
    <title>avatar-default</title>
    <desc>Created with Sketch.</desc>
    <g id="avatar-default" stroke="none" stroke-width="1" fill="none" fill-rule="evenodd">
        <circle id="Oval" fill="#FFFFFF" cx="40" cy="40" r="40"></circle>
        <path d="M55,53 C59.9705627,53 64,51.8529255 64,42.2989688 C64,32.7450121 59.9705627,25 55,25 C50.0294373,25 46,32.7450121 46,42.2989688 C46,51.8529255 50.0294373,53 55,53 Z" id="center" stroke="#000000" stroke-width="2" fill="#FFFFFF"></path>
        <path d="M56,54 C59.3137085,54 62,53.2103659 62,46.3755425 C62,39.5407191 59.3137085,34 56,34 C52.6862915,34 50,39.5407191 50,46.3755425 C50,53.2103659 52.6862915,54 56,54 Z" id="center" fill="#000000"></path>
        <ellipse id="center" cx="57.5" cy="42" rx="2.5" ry="5"></ellipse>
        <path d="M24.3333333,53.3253878 C29.487991,53.3253878 33.6666667,52.1649831 33.6666667,42.5 C33.6666667,32.8350169 29.487991,25 24.3333333,25 C19.1786757,25 15,32.8350169 15,42.5 C15,52.1649831 19.1786757,53.3253878 24.3333333,53.3253878 Z" id="center" stroke="#000000" stroke-width="2" fill="#FFFFFF"></path>
        <path d="M24.8888889,53.5850439 C28.4548837,53.5850439 31.3456937,52.7954097 31.3456937,45.9605863 C31.3456937,39.125763 28.4548837,33.5850439 24.8888889,33.5850439 C21.3228941,33.5850439 18.4320841,39.125763 18.4320841,45.9605863 C18.4320841,52.7954097 21.3228941,53.5850439 24.8888889,53.5850439 Z" id="center" fill="#000000"></path>
        <ellipse id="center" cx="26.3888889" cy="42" rx="2.5" ry="5"></ellipse>
    </g>
</svg>