<?xml version="1.0" encoding="UTF-8"?>
<svg width="80px" height="80px" viewBox="0 0 80 80" version="1.1" xmlns="http://www.w3.org/2000/svg" xmlns:xlink="http://www.w3.org/1999/xlink">
    <!-- Generator: Sketch 63.1 (92452) - https://sketch.com -->
    <title>celine-chiasera</title>
    <desc>Created with Sketch.</desc>
    <defs>
        <rect id="path-1" x="0" y="0" width="80" height="80" rx="40"></rect>
    </defs>
    <g id="celine-chiasera" stroke="none" stroke-width="1" fill="none" fill-rule="evenodd">
        <mask id="mask-2" fill="white">
            <use xlink:href="#path-1"></use>
        </mask>
        <rect stroke="#FFFFFF" stroke-width="2" x="1" y="1" width="78" height="78" rx="39"></rect>
        <g id="Group" mask="url(#mask-2)">
            <g transform="translate(37.227273, 12.000000)" id="center">
                <circle fill="#000000" cx="15.5" cy="15.5" r="15.5"></circle>
                <ellipse fill="#FFFFFF" cx="16.2045455" cy="15" rx="7.75" ry="8"></ellipse>
                <ellipse fill="#000000" cx="16.2045455" cy="15" rx="4.22727273" ry="4"></ellipse>
            </g>
        </g>
        <rect id="Rectangle" fill="#000000" mask="url(#mask-2)" transform="translate(40.000000, 66.000000) scale(1, -1) translate(-40.000000, -66.000000) " x="24" y="65" width="32" height="2" rx="1"></rect>
        <g id="Group-2" mask="url(#mask-2)">
            <g transform="translate(11.772727, 12.000000)">
                <circle id="left" fill="#000000" cx="15.5" cy="15.5" r="15.5"></circle>
                <ellipse id="center-copy" fill="#FFFFFF" cx="14.7954545" cy="15" rx="7.75" ry="8"></ellipse>
                <ellipse id="center-copy-2" fill="#000000" cx="14.7954545" cy="15" rx="4.22727273" ry="4"></ellipse>
            </g>
        </g>
        <g id="Group-3" mask="url(#mask-2)" stroke="#000000" stroke-linecap="round" stroke-width="2">
            <g transform="translate(39.863636, 52.500000) rotate(-180.000000) translate(-39.863636, -52.500000) translate(8.363636, 45.000000)" id="Line">
                <line x1="18.6850649" y1="10.3125" x2="1.04220779" y2="0.6875"></line>
                <line x1="18.3636364" y1="15" x2="0.363636364" y2="12"></line>
                <line x1="61.6850649" y1="10.3125" x2="44.0422078" y2="0.6875" transform="translate(52.863636, 5.500000) scale(-1, 1) translate(-52.863636, -5.500000) "></line>
                <line x1="62.3636364" y1="15" x2="43.3636364" y2="12" transform="translate(52.863636, 13.500000) scale(-1, 1) translate(-52.863636, -13.500000) "></line>
            </g>
        </g>
        <rect id="Rectangle-Copy" fill="#000000" mask="url(#mask-2)" transform="translate(40.000000, 53.000000) scale(1, -1) translate(-40.000000, -53.000000) " x="35" y="50" width="10" height="6" rx="3"></rect>
        <circle id="Oval" mask="url(#mask-2)" cx="40" cy="40" r="40"></circle>
    </g>
</svg>