<?xml version="1.0" encoding="UTF-8"?>
<svg width="80px" height="80px" viewBox="0 0 80 80" version="1.1" xmlns="http://www.w3.org/2000/svg" xmlns:xlink="http://www.w3.org/1999/xlink">
    <!-- Generator: Sketch 63.1 (92452) - https://sketch.com -->
    <title>clyde-arcalis</title>
    <desc>Created with Sketch.</desc>
    <g id="clyde-arcalis" stroke="none" stroke-width="1" fill="none" fill-rule="evenodd">
        <circle id="Oval" stroke="#000000" stroke-width="2" fill="#000000" cx="40" cy="40" r="39"></circle>
        <g id="Group" transform="translate(17.000000, 19.000000)">
            <circle id="center" fill="#FFFFFF" cx="36" cy="10" r="10"></circle>
            <circle id="left" fill="#FFFFFF" cx="10" cy="10" r="10"></circle>
            <circle id="center" fill="#000000" cx="36" cy="10" r="5"></circle>
            <circle id="left" fill="#000000" cx="10" cy="10" r="5"></circle>
        </g>
        <rect id="Rectangle" fill="#FFFFFF" transform="translate(40.000000, 53.000000) scale(1, -1) translate(-40.000000, -53.000000) " x="27" y="51" width="26" height="4" rx="2"></rect>
        <rect id="Rectangle-Copy" fill="#FFFFFF" transform="translate(34.000000, 56.000000) scale(1, -1) translate(-34.000000, -56.000000) " x="29" y="53" width="10" height="6" rx="3"></rect>
        <rect id="Rectangle-Copy" fill="#FFFFFF" transform="translate(46.000000, 56.000000) scale(1, -1) translate(-46.000000, -56.000000) " x="41" y="53" width="10" height="6" rx="3"></rect>
        <circle id="Oval" fill="#FFFFFF" cx="40" cy="40" r="4"></circle>
        <rect id="Rectangle" fill="#FFFFFF" x="25" y="6" width="12" height="7" rx="3.5"></rect>
        <rect id="Rectangle-Copy-2" fill="#FFFFFF" x="40" y="9" width="20" height="7" rx="3.5"></rect>
        <circle id="Oval" cx="40" cy="40" r="40"></circle>
    </g>
</svg>