<?xml version="1.0" encoding="UTF-8"?>
<svg width="80px" height="80px" viewBox="0 0 80 80" version="1.1" xmlns="http://www.w3.org/2000/svg" xmlns:xlink="http://www.w3.org/1999/xlink">
    <!-- Generator: Sketch 63.1 (92452) - https://sketch.com -->
    <title>dave-kouliche</title>
    <desc>Created with Sketch.</desc>
    <defs>
        <rect id="path-1" x="0" y="0" width="80" height="80" rx="40"></rect>
    </defs>
    <g id="dave-kouliche" stroke="none" stroke-width="1" fill="none" fill-rule="evenodd">
        <mask id="mask-2" fill="white">
            <use xlink:href="#path-1"></use>
        </mask>
        <rect stroke="#000000" stroke-width="2" x="1" y="1" width="78" height="78" rx="39"></rect>
        <ellipse id="Oval" fill="#FFFFFF" mask="url(#mask-2)" transform="translate(40.000000, 53.000000) rotate(-180.000000) translate(-40.000000, -53.000000) " cx="40" cy="53" rx="7" ry="2"></ellipse>
        <rect id="Rectangle" fill="#FFFFFF" mask="url(#mask-2)" transform="translate(40.000000, 63.000000) scale(1, -1) translate(-40.000000, -63.000000) " x="30" y="61" width="20" height="4" rx="2"></rect>
        <g id="Group" mask="url(#mask-2)">
            <g transform="translate(17.000000, 22.000000)">
                <circle id="center" stroke="#000000" stroke-width="2" fill="#FFFFFF" transform="translate(10.000000, 10.000000) rotate(-180.000000) translate(-10.000000, -10.000000) " cx="10" cy="10" r="11"></circle>
                <circle id="left" stroke="#000000" stroke-width="2" fill="#FFFFFF" transform="translate(36.000000, 10.000000) rotate(-180.000000) translate(-36.000000, -10.000000) " cx="36" cy="10" r="11"></circle>
                <circle id="center" stroke="none" fill="#000000" transform="translate(10.000000, 10.000000) rotate(-180.000000) translate(-10.000000, -10.000000) " cx="10" cy="10" r="5"></circle>
                <circle id="left" stroke="none" fill="#000000" transform="translate(36.000000, 10.000000) rotate(-180.000000) translate(-36.000000, -10.000000) " cx="36" cy="10" r="5"></circle>
            </g>
        </g>
    </g>
</svg>