<?xml version="1.0" encoding="UTF-8"?>
<svg width="80px" height="80px" viewBox="0 0 80 80" version="1.1" xmlns="http://www.w3.org/2000/svg" xmlns:xlink="http://www.w3.org/1999/xlink">
    <!-- Generator: Sketch 63.1 (92452) - https://sketch.com -->
    <title>florent-le-goff</title>
    <desc>Created with Sketch.</desc>
    <defs>
        <rect id="path-1" x="0" y="0" width="80" height="80" rx="40"></rect>
    </defs>
    <g id="florent-le-goff" stroke="none" stroke-width="1" fill="none" fill-rule="evenodd">
        <mask id="mask-2" fill="white">
            <use xlink:href="#path-1"></use>
        </mask>
        <rect stroke="#000000" stroke-width="2" x="1" y="1" width="78" height="78" rx="39"></rect>
        <path d="M40,-3.76393202 L-6.38196601,89 L86.381966,89 L40,-3.76393202 Z" id="Triangle" stroke="#FFFFFF" stroke-width="2" fill="#000000" mask="url(#mask-2)" transform="translate(40.000000, 42.000000) rotate(-180.000000) translate(-40.000000, -42.000000) "></path>
        <rect id="Rectangle" fill="#FFFFFF" mask="url(#mask-2)" transform="translate(40.000000, 42.000000) scale(1, -1) translate(-40.000000, -42.000000) " x="26" y="40" width="28" height="4" rx="2"></rect>
        <g id="Group" mask="url(#mask-2)">
            <g transform="translate(17.000000, 13.000000)">
                <circle id="center" fill="#FFFFFF" cx="36" cy="10" r="10"></circle>
                <circle id="left" fill="#FFFFFF" cx="10" cy="10" r="10"></circle>
                <circle id="center" fill="#000000" cx="36" cy="10" r="5"></circle>
                <circle id="left" fill="#000000" cx="10" cy="10" r="5"></circle>
            </g>
        </g>
        <rect id="Rectangle-Copy" stroke="#FFFFFF" stroke-width="2" fill="#000000" mask="url(#mask-2)" transform="translate(40.000000, 78.000000) scale(1, -1) translate(-40.000000, -78.000000) " x="-3" y="63" width="86" height="30" rx="6"></rect>
        <circle id="Oval" mask="url(#mask-2)" cx="40" cy="40" r="40"></circle>
    </g>
</svg>