<?xml version="1.0" encoding="UTF-8"?>
<svg width="80px" height="80px" viewBox="0 0 80 80" version="1.1" xmlns="http://www.w3.org/2000/svg" xmlns:xlink="http://www.w3.org/1999/xlink">
    <!-- Generator: Sketch 63.1 (92452) - https://sketch.com -->
    <title>francois-reboux</title>
    <desc>Created with Sketch.</desc>
    <defs>
        <rect id="path-1" x="0" y="0" width="80" height="80" rx="40"></rect>
    </defs>
    <g id="francois-reboux" stroke="none" stroke-width="1" fill="none" fill-rule="evenodd">
        <mask id="mask-2" fill="white">
            <use xlink:href="#path-1"></use>
        </mask>
        <rect stroke="#FFFFFF" stroke-width="2" x="1" y="1" width="78" height="78" rx="39"></rect>
        <circle id="center" fill="#000000" mask="url(#mask-2)" cx="54" cy="37" r="11"></circle>
        <circle id="left" fill="#000000" mask="url(#mask-2)" cx="26" cy="37" r="11"></circle>
        <circle id="center" fill="#FFFFFF" mask="url(#mask-2)" cx="54.5" cy="36.5" r="5.5"></circle>
        <circle id="center-copy" fill="#FFFFFF" mask="url(#mask-2)" cx="25.5" cy="36.5" r="5.5"></circle>
        <circle id="center" fill="#000000" mask="url(#mask-2)" cx="54.5" cy="36.5" r="3"></circle>
        <circle id="center-copy-2" fill="#000000" mask="url(#mask-2)" cx="25.5" cy="36.5" r="3"></circle>
        <rect id="Rectangle" fill="#000000" mask="url(#mask-2)" transform="translate(40.000000, 66.000000) scale(1, -1) translate(-40.000000, -66.000000) " x="21" y="63" width="38" height="6" rx="3"></rect>
        <rect id="Rectangle-Copy" fill="#000000" mask="url(#mask-2)" transform="translate(40.000000, 58.000000) scale(1, -1) translate(-40.000000, -58.000000) " x="35" y="55" width="10" height="6" rx="3"></rect>
        <line x1="30.5" y1="56.5" x2="17.5" y2="49.5" id="Line" stroke="#000000" stroke-width="2" stroke-linecap="round" mask="url(#mask-2)"></line>
        <line x1="30" y1="60" x2="17" y2="58" id="Line" stroke="#000000" stroke-width="2" stroke-linecap="round" mask="url(#mask-2)"></line>
        <line x1="62.5" y1="56.5" x2="49.5" y2="49.5" id="Line" stroke="#000000" stroke-width="2" stroke-linecap="round" mask="url(#mask-2)" transform="translate(56.000000, 53.000000) scale(-1, 1) translate(-56.000000, -53.000000) "></line>
        <line x1="63" y1="60" x2="49" y2="58" id="Line" stroke="#000000" stroke-width="2" stroke-linecap="round" mask="url(#mask-2)" transform="translate(56.000000, 59.000000) scale(-1, 1) translate(-56.000000, -59.000000) "></line>
        <ellipse id="Oval" fill="#000000" mask="url(#mask-2)" cx="40" cy="14" rx="20" ry="10"></ellipse>
        <circle id="Oval" mask="url(#mask-2)" cx="40" cy="40" r="40"></circle>
    </g>
</svg>