<?xml version="1.0" encoding="UTF-8"?>
<svg width="80px" height="80px" viewBox="0 0 80 80" version="1.1" xmlns="http://www.w3.org/2000/svg" xmlns:xlink="http://www.w3.org/1999/xlink">
    <!-- Generator: Sketch 63.1 (92452) - https://sketch.com -->
    <title>gregory-pezard</title>
    <desc>Created with Sketch.</desc>
    <defs>
        <rect id="path-1" x="0" y="0" width="80" height="80" rx="40"></rect>
    </defs>
    <g id="gregory-pezard" stroke="none" stroke-width="1" fill="none" fill-rule="evenodd">
        <mask id="mask-2" fill="white">
            <use xlink:href="#path-1"></use>
        </mask>
        <rect stroke="#FFFFFF" stroke-width="2" x="1" y="1" width="78" height="78" rx="39"></rect>
        <circle id="center" fill="#000000" mask="url(#mask-2)" cx="40" cy="71" r="5"></circle>
        <g id="Group" mask="url(#mask-2)">
            <g transform="translate(15.000000, 19.000000)">
                <polygon id="Triangle" fill="#000000" points="25 15 32.5 30 17.5 30"></polygon>
                <circle id="center" fill="#000000" cx="39" cy="11" r="11"></circle>
                <circle id="left" fill="#000000" cx="11" cy="11" r="11"></circle>
                <circle id="center" fill="#FFFFFF" cx="39.5" cy="10.5" r="5.5"></circle>
                <circle id="center-copy" fill="#FFFFFF" cx="10.5" cy="10.5" r="5.5"></circle>
                <circle id="center" fill="#000000" cx="39.5" cy="10.5" r="3"></circle>
                <circle id="center-copy-2" fill="#000000" cx="10.5" cy="10.5" r="3"></circle>
                <rect id="Rectangle" fill="#000000" transform="translate(25.000000, 43.000000) scale(1, -1) translate(-25.000000, -43.000000) " x="12" y="41" width="26" height="4" rx="2"></rect>
                <rect id="Rectangle" fill="#000000" transform="translate(25.000000, 36.000000) scale(1, -1) translate(-25.000000, -36.000000) " x="12" y="34" width="26" height="4" rx="2"></rect>
            </g>
        </g>
        <circle id="center" fill="#000000" mask="url(#mask-2)" cx="71" cy="40" r="5"></circle>
        <circle id="left" fill="#000000" mask="url(#mask-2)" cx="9" cy="40" r="5"></circle>
        <circle id="Oval" mask="url(#mask-2)" cx="40" cy="40" r="40"></circle>
    </g>
</svg>