<?xml version="1.0" encoding="UTF-8"?>
<svg width="80px" height="80px" viewBox="0 0 80 80" version="1.1" xmlns="http://www.w3.org/2000/svg" xmlns:xlink="http://www.w3.org/1999/xlink">
    <!-- Generator: Sketch 63.1 (92452) - https://sketch.com -->
    <title>helia-afonso-caldas</title>
    <desc>Created with Sketch.</desc>
    <g id="helia-afonso-caldas" stroke="none" stroke-width="1" fill="none" fill-rule="evenodd">
        <rect id="Rectangle" stroke="#FFFFFF" stroke-width="2" fill="#FFFFFF" x="1" y="1" width="78" height="78" rx="39"></rect>
        <g id="Group-2" transform="translate(16.000000, 12.000000)">
            <ellipse id="Oval" fill="#000000" cx="42" cy="10.5" rx="6" ry="10.5"></ellipse>
            <ellipse id="Oval-Copy" fill="#000000" cx="6" cy="10.5" rx="6" ry="10.5"></ellipse>
            <ellipse id="Oval" fill="#000000" transform="translate(24.000000, 21.500000) rotate(-180.000000) translate(-24.000000, -21.500000) " cx="24" cy="21.5" rx="11" ry="5.5"></ellipse>
            <g id="Group" transform="translate(1.000000, 34.000000)" stroke="#000000" stroke-linecap="round" stroke-width="2">
                <line x1="13.5" y1="8.6875" x2="0.5" y2="4.3125" id="Line" transform="translate(7.000000, 6.500000) scale(1, -1) translate(-7.000000, -6.500000) "></line>
                <line x1="13" y1="1" x2="7.21644966e-16" y2="-1.13686838e-13" id="Line" transform="translate(6.500000, 0.500000) scale(1, -1) translate(-6.500000, -0.500000) "></line>
                <line x1="45.5" y1="8.6875" x2="32.5" y2="4.3125" id="Line" transform="translate(39.000000, 6.500000) scale(-1, -1) translate(-39.000000, -6.500000) "></line>
                <line x1="46" y1="1" x2="32" y2="-1.13686838e-13" id="Line" transform="translate(39.000000, 0.500000) scale(-1, -1) translate(-39.000000, -0.500000) "></line>
            </g>
        </g>
        <circle id="Oval" cx="40" cy="40" r="40"></circle>
    </g>
</svg>