<?xml version="1.0" encoding="UTF-8"?>
<svg width="80px" height="80px" viewBox="0 0 80 80" version="1.1" xmlns="http://www.w3.org/2000/svg" xmlns:xlink="http://www.w3.org/1999/xlink">
    <!-- Generator: Sketch 63.1 (92452) - https://sketch.com -->
    <title>joss-quinty</title>
    <desc>Created with Sketch.</desc>
    <g id="joss-quinty" stroke="none" stroke-width="1" fill="none" fill-rule="evenodd">
        <rect id="Rectangle" fill="#000000" x="0" y="0" width="80" height="80" rx="40"></rect>
        <path d="M48.5,69.3448276 C44.0847752,72.0114943 36.9153526,72.0114943 32.5,69.3448276" id="Stroke-2" stroke="#FFFFFF" stroke-width="5" stroke-linecap="round" stroke-linejoin="round"></path>
        <path d="M68,18 C52.5467132,27.3333333 27.4537339,27.3333333 12,18" id="Stroke-2-Copy-2" stroke="#FFFFFF" stroke-width="2" stroke-linecap="round" stroke-linejoin="round" transform="translate(40.000000, 21.500000) scale(1, -1) translate(-40.000000, -21.500000) "></path>
        <path d="M48,3 C43.5847752,5.66666667 36.4153526,5.66666667 32,3" id="Stroke-2-Copy-3" stroke="#FFFFFF" stroke-width="2" stroke-linecap="round" stroke-linejoin="round" transform="translate(40.000000, 4.000000) scale(1, -1) translate(-40.000000, -4.000000) "></path>
        <path d="M74,28 C55.2352946,37.3333333 24.7652484,37.3333333 6,28" id="Stroke-2-Copy" stroke="#FFFFFF" stroke-width="3" stroke-linecap="round" stroke-linejoin="round" transform="translate(40.000000, 31.500000) scale(1, -1) rotate(180.000000) translate(-40.000000, -31.500000) "></path>
        <path d="M57,8 C47.6176473,13.6666667 32.3826242,13.6666667 23,8" id="Stroke-2-Copy-4" stroke="#FFFFFF" stroke-width="3" stroke-linecap="round" stroke-linejoin="round" transform="translate(40.000000, 10.125000) scale(1, -1) rotate(180.000000) translate(-40.000000, -10.125000) "></path>
        <circle id="Oval-Copy" fill="#FFFFFF" cx="21" cy="50" r="11"></circle>
        <circle id="Oval" fill="#000000" cx="24" cy="47" r="3"></circle>
        <circle id="Oval-Copy" fill="#FFFFFF" transform="translate(59.000000, 50.000000) rotate(-90.000000) translate(-59.000000, -50.000000) " cx="59" cy="50" r="11"></circle>
        <circle id="Oval" fill="#000000" transform="translate(56.000000, 47.000000) rotate(-90.000000) translate(-56.000000, -47.000000) " cx="56" cy="47" r="3"></circle>
        <circle id="Oval-Copy" fill="#FFFFFF" transform="translate(37.000000, 23.000000) rotate(-90.000000) translate(-37.000000, -23.000000) " cx="37" cy="23" r="2"></circle>
        <circle id="Oval-Copy-5" fill="#FFFFFF" transform="translate(26.500000, 27.500000) rotate(-90.000000) translate(-26.500000, -27.500000) " cx="26.5" cy="27.5" r="1.5"></circle>
        <circle id="Oval-Copy-2" fill="#FFFFFF" transform="translate(18.000000, 15.000000) rotate(-90.000000) translate(-18.000000, -15.000000) " cx="18" cy="15" r="3"></circle>
        <circle id="Oval-Copy-3" fill="#FFFFFF" transform="translate(48.000000, 27.000000) rotate(-90.000000) translate(-48.000000, -27.000000) " cx="48" cy="27" r="3"></circle>
        <circle id="Oval-Copy-4" fill="#FFFFFF" transform="translate(58.000000, 14.000000) rotate(-90.000000) translate(-58.000000, -14.000000) " cx="58" cy="14" r="2"></circle>
    </g>
</svg>