<?xml version="1.0" encoding="UTF-8"?>
<svg width="80px" height="80px" viewBox="0 0 80 80" version="1.1" xmlns="http://www.w3.org/2000/svg" xmlns:xlink="http://www.w3.org/1999/xlink">
    <!-- Generator: Sketch 63.1 (92452) - https://sketch.com -->
    <title>lea-bouguin</title>
    <desc>Created with Sketch.</desc>
    <g id="lea-bouguin" stroke="none" stroke-width="1" fill="none" fill-rule="evenodd">
        <rect id="Rectangle" fill="#000000" x="0" y="0" width="80" height="80" rx="40"></rect>
        <g id="Group" transform="translate(1.000000, 19.000000)">
            <ellipse id="Oval" fill="#FFFFFF" transform="translate(18.500000, 23.091391) rotate(-345.000000) translate(-18.500000, -23.091391) " cx="18.5" cy="23.0913914" rx="15.4840924" ry="10.9635955"></ellipse>
            <ellipse id="Oval" fill="#FFFFFF" transform="translate(59.500000, 23.091391) rotate(-195.000000) translate(-59.500000, -23.091391) " cx="59.5" cy="23.0913914" rx="15.4840924" ry="10.9635955"></ellipse>
            <ellipse id="center" fill="#000000" transform="translate(26.000000, 18.000000) rotate(-180.000000) translate(-26.000000, -18.000000) " cx="26" cy="18" rx="5" ry="10"></ellipse>
            <ellipse id="left" fill="#000000" transform="translate(52.000000, 18.000000) rotate(-180.000000) translate(-52.000000, -18.000000) " cx="52" cy="18" rx="5" ry="10"></ellipse>
            <path d="M21.698132,9.27094034 C18.8942893,11.8932797 12.2741636,9.75404324 6.92399813,4.49680643" id="Stroke-2" stroke="#FFFFFF" stroke-width="2" stroke-linecap="round" stroke-linejoin="round" transform="translate(14.311065, 7.443961) rotate(-315.000000) translate(-14.311065, -7.443961) "></path>
            <path d="M71.0760019,9.27094034 C68.2721591,11.8932797 61.6520335,9.75404324 56.301868,4.49680643" id="Stroke-2" stroke="#FFFFFF" stroke-width="2" stroke-linecap="round" stroke-linejoin="round" transform="translate(63.688935, 7.443961) scale(-1, 1) rotate(-315.000000) translate(-63.688935, -7.443961) "></path>
        </g>
        <path d="M55,62 C46.997405,70 34.0028265,70 26,62" id="Stroke-2" stroke="#FFFFFF" stroke-width="3" stroke-linecap="round" stroke-linejoin="round"></path>
        <line x1="37.5" y1="59.5" x2="43.5" y2="59.5" id="Line-3" stroke="#FFFFFF" stroke-width="2" stroke-linecap="round" stroke-linejoin="round"></line>
        <g id="Group-2" transform="translate(19.000000, 21.000000)" stroke="#FFFFFF" stroke-linecap="round" stroke-width="4">
            <line x1="13.5" y1="7.5" x2="0.5" y2="0.5" id="Line"></line>
            <line x1="41.5" y1="7.5" x2="28.5" y2="0.5" id="Line" transform="translate(35.000000, 4.000000) scale(-1, 1) translate(-35.000000, -4.000000) "></line>
        </g>
    </g>
</svg>