<?xml version="1.0" encoding="UTF-8"?>
<svg width="80px" height="80px" viewBox="0 0 80 80" version="1.1" xmlns="http://www.w3.org/2000/svg" xmlns:xlink="http://www.w3.org/1999/xlink">
    <title>marine-aya</title>
    <g id="marine-aya" stroke="none" stroke-width="1" fill="none" fill-rule="evenodd">
        <rect id="Rectangle-Copy-12" fill="#000000" x="0" y="0" width="80" height="80" rx="40"></rect>
        <g id="Group-11" transform="translate(5.000000, 9.000000)" stroke="#FFFFFF" stroke-linecap="round" stroke-linejoin="round">
            <line x1="35" y1="29" x2="15" y2="0" id="Stroke-4"></line>
            <line x1="35" y1="29" x2="56" y2="2" id="Stroke-5"></line>
            <line x1="35" y1="29" x2="0.5" y2="33.5" id="Stroke-6"></line>
            <line x1="35" y1="29" x2="67" y2="41" id="Stroke-7"></line>
            <line x1="35" y1="29" x2="19" y2="60" id="Stroke-8"></line>
            <line x1="35" y1="29" x2="50" y2="59" id="Stroke-9"></line>
            <line x1="53" y1="23" x2="68" y2="17" id="Stroke-10"></line>
            <line x1="14.5" y1="19.5" x2="5.5" y2="11.5" id="Stroke-11"></line>
            <path d="M41,42.1111111 C43.8682391,42.9588032 48.2691639,40.5965152 49.2314558,33.635349 C51.5155999,33.0384255 53.5483295,26.7465697 52.8154107,22.9377946 C48.8516462,22.755847 46.9715719,21.2364744 45.5,15.5 C38.5608361,18.5878491 32.0632345,17.5254469 24.4838867,13.9890137 C23.1452796,17.1142151 18.8819952,21.0597497 14.1479492,19.3719431 C12.1582271,25.4765025 19.3342834,30.9663092 21.9037998,30.9609604 C19.680135,39.5845265 18.5118553,49.1617796 25.0397603,48.7902179 C26.215332,54.6416016 44.159668,53.734375 45.5,50 C48.3381339,51.084108 59.9833205,44.7237208 59.9833205,38.0926634 C62.5759535,36.1793166 63.5810736,27.615122 62.6712867,19.3719431 C58.7011606,16.6382722 54.1527635,14.1789936 52.8154107,6 C46.0709452,7.17878136 32.0640249,9.40339554 19.0042725,5.72521973 C16.0544984,12.3030568 13.2140586,15.7056144 9.00488281,14.5 C9.05595417,20.7957782 7.88132864,29.8580561 5.9855957,33.1464844" id="Stroke-12" stroke-width="2"></path>
        </g>
        <g id="Group-2" transform="translate(25.000000, 33.000000)">
            <circle id="Oval-Copy" fill="#FFFFFF" cx="9.55555556" cy="9.55555556" r="9.55555556"></circle>
            <g id="Group" transform="translate(9.000000, 9.242641) rotate(-180.000000) translate(-9.000000, -9.242641) translate(3.000000, 3.742641)">
                <ellipse id="Oval-Copy-5" fill="#000000" transform="translate(8.500000, 5.500000) rotate(-360.000000) translate(-8.500000, -5.500000) " cx="8.5" cy="5.5" rx="3.5" ry="5.5"></ellipse>
                <ellipse id="Oval-Copy-5" fill="#FFFFFF" transform="translate(3.500000, 5.500000) rotate(-360.000000) translate(-3.500000, -5.500000) " cx="3.5" cy="5.5" rx="3.5" ry="5.5"></ellipse>
            </g>
        </g>
        <g id="Group-3" transform="translate(41.000000, 19.000000)">
            <circle id="Oval-Copy" fill="#FFFFFF" cx="9.55555556" cy="9.55555556" r="9.55555556"></circle>
            <g id="Group" transform="translate(9.000000, 9.242641) rotate(-180.000000) translate(-9.000000, -9.242641) translate(3.000000, 3.742641)">
                <ellipse id="Oval-Copy-5" fill="#000000" transform="translate(8.500000, 5.500000) rotate(-360.000000) translate(-8.500000, -5.500000) " cx="8.5" cy="5.5" rx="3.5" ry="5.5"></ellipse>
                <ellipse id="Oval-Copy-5" fill="#FFFFFF" transform="translate(3.500000, 5.500000) rotate(-360.000000) translate(-3.500000, -5.500000) " cx="3.5" cy="5.5" rx="3.5" ry="5.5"></ellipse>
            </g>
        </g>
        <path d="M55.8333333,58 C43.139562,72.6666667 22.5274719,72.6666667 9.83333333,58" id="Stroke-2" stroke="#FFFFFF" stroke-width="2" stroke-linecap="round" stroke-linejoin="round" transform="translate(32.833333, 63.500000) rotate(19.000000) translate(-32.833333, -63.500000) "></path>
    </g>
</svg>