<?xml version="1.0" encoding="UTF-8"?>
<svg width="80px" height="80px" viewBox="0 0 80 80" version="1.1" xmlns="http://www.w3.org/2000/svg" xmlns:xlink="http://www.w3.org/1999/xlink">
    <!-- Generator: Sketch 63.1 (92452) - https://sketch.com -->
    <title>nicolas-mas</title>
    <desc>Created with Sketch.</desc>
    <g id="nicolas-mas" stroke="none" stroke-width="1" fill="none" fill-rule="evenodd">
        <rect id="Rectangle" fill="#000000" x="0" y="0" width="80" height="80" rx="40"></rect>
        <g id="Group-2" transform="translate(29.000000, 52.000000)" fill="#FFFFFF">
            <rect id="Rectangle" transform="translate(3.000000, 6.000000) scale(1, -1) rotate(-75.000000) translate(-3.000000, -6.000000) " x="-2" y="5" width="10" height="2" rx="1"></rect>
            <rect id="Rectangle" transform="translate(20.000000, 6.000000) scale(-1, -1) rotate(-75.000000) translate(-20.000000, -6.000000) " x="15" y="5" width="10" height="2" rx="1"></rect>
            <ellipse id="Oval" transform="translate(11.500000, 10.000000) rotate(-180.000000) translate(-11.500000, -10.000000) " cx="11.5" cy="10" rx="8.5" ry="2"></ellipse>
        </g>
        <g id="Group" transform="translate(47.000000, 32.000000)">
            <ellipse id="Oval-Copy" fill="#FFFFFF" transform="translate(11.121320, 10.500000) rotate(-309.000000) translate(-11.121320, -10.500000) " cx="11.1213203" cy="10.5" rx="4.5" ry="10.5"></ellipse>
            <ellipse id="Oval-Copy-5" fill="#000000" transform="translate(8.000000, 8.742641) rotate(-360.000000) translate(-8.000000, -8.742641) " cx="8" cy="8.74264069" rx="3" ry="4"></ellipse>
        </g>
        <g id="Group" transform="translate(21.500000, 42.500000) scale(-1, 1) translate(-21.500000, -42.500000) translate(10.000000, 32.000000)">
            <ellipse id="Oval-Copy" fill="#FFFFFF" transform="translate(11.121320, 10.500000) rotate(-309.000000) translate(-11.121320, -10.500000) " cx="11.1213203" cy="10.5" rx="4.5" ry="10.5"></ellipse>
            <ellipse id="Oval-Copy-5" fill="#000000" transform="translate(8.000000, 8.742641) rotate(-360.000000) translate(-8.000000, -8.742641) " cx="8" cy="8.74264069" rx="3" ry="4"></ellipse>
        </g>
        <polyline id="Line" stroke="#FFFFFF" stroke-width="4" stroke-linecap="round" points="26 28.5 28.25 36.25 8.75 25.75"></polyline>
        <path d="M68.5159076,28.5 C70.3386359,33.6666667 71.25,36.25 71.25,36.25 C71.25,36.25 64.75,32.75 51.75,25.75" id="Line" stroke="#FFFFFF" stroke-width="4" stroke-linecap="round" transform="translate(61.500000, 31.000000) scale(-1, 1) translate(-61.500000, -31.000000) "></path>
        <g id="Group-4" transform="translate(49.000000, 61.000000)" stroke="#FFFFFF" stroke-linecap="round" stroke-width="2">
            <line x1="13.5" y1="4.6875" x2="0.5" y2="0.3125" id="Line" transform="translate(7.000000, 2.500000) scale(1, -1) rotate(180.000000) translate(-7.000000, -2.500000) "></line>
            <line x1="13" y1="9" x2="7.21644966e-16" y2="8" id="Line" transform="translate(6.500000, 8.500000) scale(1, -1) rotate(180.000000) translate(-6.500000, -8.500000) "></line>
        </g>
        <g id="Group-4" transform="translate(24.000000, 65.500000) scale(-1, 1) translate(-24.000000, -65.500000) translate(17.000000, 61.000000)" stroke="#FFFFFF" stroke-linecap="round" stroke-width="2">
            <line x1="13.5" y1="4.6875" x2="0.5" y2="0.3125" id="Line" transform="translate(7.000000, 2.500000) scale(1, -1) rotate(180.000000) translate(-7.000000, -2.500000) "></line>
            <line x1="13" y1="9" x2="7.21644966e-16" y2="8" id="Line" transform="translate(6.500000, 8.500000) scale(1, -1) rotate(180.000000) translate(-6.500000, -8.500000) "></line>
        </g>
        <line x1="39.5" y1="11.5" x2="39.5" y2="33.5" id="Line-4" stroke="#FFFFFF" stroke-width="2" stroke-linecap="round"></line>
        <line x1="51.5" y1="17.5" x2="46.5" y2="28.5" id="Line-2" stroke="#FFFFFF" stroke-width="2" stroke-linecap="round"></line>
        <line x1="28.5" y1="17.5" x2="32.5" y2="24.5" id="Line-3" stroke="#FFFFFF" stroke-width="2" stroke-linecap="round"></line>
    </g>
</svg>