<?xml version="1.0" encoding="UTF-8"?>
<svg width="80px" height="80px" viewBox="0 0 80 80" version="1.1" xmlns="http://www.w3.org/2000/svg" xmlns:xlink="http://www.w3.org/1999/xlink">
    <!-- Generator: Sketch 63.1 (92452) - https://sketch.com -->
    <title>sandrine-grosset</title>
    <desc>Created with Sketch.</desc>
    <defs>
        <rect id="path-1" x="0" y="0" width="80" height="80" rx="40"></rect>
    </defs>
    <g id="sandrine-grosset" stroke="none" stroke-width="1" fill="none" fill-rule="evenodd">
        <mask id="mask-2" fill="white">
            <use xlink:href="#path-1"></use>
        </mask>
        <rect stroke="#FFFFFF" stroke-width="2" x="1" y="1" width="78" height="78" rx="39"></rect>
        <circle id="center" fill="#000000" mask="url(#mask-2)" transform="translate(24.000000, 32.000000) rotate(-180.000000) translate(-24.000000, -32.000000) " cx="24" cy="32" r="11"></circle>
        <circle id="center" fill="#000000" mask="url(#mask-2)" transform="translate(57.000000, 32.000000) rotate(-180.000000) translate(-57.000000, -32.000000) " cx="57" cy="32" r="11"></circle>
        <g id="Group-3" mask="url(#mask-2)" fill="#000000">
            <g transform="translate(8.000000, 49.000000)">
                <circle id="center" transform="translate(6.000000, 6.000000) rotate(-180.000000) translate(-6.000000, -6.000000) " cx="6" cy="6" r="6"></circle>
                <circle id="left" transform="translate(58.000000, 6.000000) rotate(-180.000000) translate(-58.000000, -6.000000) " cx="58" cy="6" r="6"></circle>
            </g>
        </g>
        <rect id="Rectangle" fill="#000000" mask="url(#mask-2)" transform="translate(40.000000, 55.000000) scale(1, -1) rotate(-180.000000) translate(-40.000000, -55.000000) " x="27" y="53" width="26" height="4" rx="2"></rect>
        <rect id="Rectangle" fill="#000000" mask="url(#mask-2)" transform="translate(40.000000, 61.000000) scale(1, -1) rotate(-180.000000) translate(-40.000000, -61.000000) " x="27" y="59" width="26" height="4" rx="2"></rect>
        <rect id="Rectangle" fill="#000000" mask="url(#mask-2)" transform="translate(40.000000, 32.000000) scale(1, -1) translate(-40.000000, -32.000000) " x="5" y="31" width="70" height="2" rx="1"></rect>
        <rect id="Rectangle" fill="#000000" mask="url(#mask-2)" transform="translate(40.500000, 38.000000) scale(1, -1) rotate(-90.000000) translate(-40.500000, -38.000000) " x="29" y="37" width="23" height="2" rx="1"></rect>
        <circle id="center" fill="#FFFFFF" mask="url(#mask-2)" transform="translate(57.000000, 32.000000) rotate(-180.000000) translate(-57.000000, -32.000000) " cx="57" cy="32" r="7"></circle>
        <circle id="center-copy" fill="#FFFFFF" mask="url(#mask-2)" transform="translate(24.000000, 32.000000) rotate(-180.000000) translate(-24.000000, -32.000000) " cx="24" cy="32" r="7"></circle>
        <circle id="Oval" mask="url(#mask-2)" cx="40" cy="40" r="40"></circle>
    </g>
</svg>