<?xml version="1.0" encoding="UTF-8"?>
<svg width="80px" height="80px" viewBox="0 0 80 80" version="1.1" xmlns="http://www.w3.org/2000/svg" xmlns:xlink="http://www.w3.org/1999/xlink">
    <title>shizuka-hotta</title>
    <g id="shizuka-hotta" stroke="none" stroke-width="1" fill="none" fill-rule="evenodd">
        <rect id="Rectangle" stroke="#EEEEEE" stroke-width="2" fill="#FFFFFF" x="1" y="1" width="78" height="78" rx="39"></rect>
        <rect id="Rectangle" fill="#000000" x="0" y="0" width="80" height="80" rx="40"></rect>
        <g id="Group" transform="translate(40.278518, 39.999440) rotate(-360.000000) translate(-40.278518, -39.999440) translate(12.000000, 12.000000)">
            <path d="M39.6743943,3.30311704 C46.8644597,1.00495296 51.6491163,3.62780473 53.8953943,6.42371704 C58.1759831,11.751709 56.2787293,19.551574 55.1390943,23.497717 C53.8953943,27.8041992 52.4230534,27.8041992 49.6024818,29.5534799 C46.5159928,31.467679 45.4405579,34.411017 43.7939789,36.3727108" id="Stroke-8" stroke="#FFFFFF" stroke-linecap="round" stroke-linejoin="round"></path>
            <path d="M25.7854943,0.111417045 C22.3821943,-0.203282955 19.2743943,0.111517045 16.1069943,1.53451704 C14.4650943,2.27221704 13.3027943,3.88411704 11.5606943,4.47901704 C7.80989427,5.75981704 6.70989427,4.11001704 4.81379427,7.77301704" id="Stroke-10" stroke="#FFFFFF" stroke-linecap="round" stroke-linejoin="round"></path>
            <path d="M10.5456943,13.234117 C10.0087943,8.56381704 3.32808274,9.18610867 1.99449427,13.634317 C0.454599539,18.7706637 2.60139427,25.250917 7.00419427,28.353017 C8.39149427,29.330517 15.3684943,30.430717 16.3935943,28.450417" id="Stroke-11" stroke="#FFFFFF" stroke-linecap="round" stroke-linejoin="round"></path>
            <path d="M3.99669427,28.963217 C-0.165081325,29.249617 -0.511461999,35.9993 0.437213597,40 C2.06618859,46.8696194 6.54920422,52.9066064 12.8170239,55.1442871 C21.5339502,58.2563259 26.0418943,52.216617 26.7878943,47.500217" id="Stroke-14" stroke="#FFFFFF" stroke-linecap="round" stroke-linejoin="round"></path>
            <path d="M13.6274943,15.136117 C11.5904943,14.121417 7.80949427,13.953917 9.37489427,17.541117 C10.2235943,19.485917 13.7688943,23.196317 15.1924943,24.975017 C16.5640943,26.688717 17.9491943,28.471217 19.6100943,29.889117 C23.1844943,32.940517 28.3605943,35.201917 32.8527943,36.302817 C33.4724943,36.454617 34.0912943,36.621017 34.7190943,36.733217 C35.2476943,36.827817 41.2010943,37.854117 41.4705943,37.504817" id="Stroke-1" stroke="#FFFFFF" stroke-linecap="round" stroke-linejoin="round"></path>
            <path d="M25.2376943,26.041017 C25.8453943,26.141117 29.8609943,28.599217 30.6438943,29.137217 C32.2571943,30.245717 33.8921943,31.357817 35.5744943,32.366017 C37.0527943,33.251917 38.7885943,34.116417 40.0317943,35.320817" id="Stroke-2" stroke="#FFFFFF" stroke-linecap="round" stroke-linejoin="round"></path>
            <path d="M41.8879943,35.959417 C44.1465943,32.979217 43.5625548,29.8110483 41.8879943,27.0644531 C40.2070148,24.3073297 42.3952214,22.0667744 43.3432443,19.7787697" id="Stroke-3" stroke="#FFFFFF" stroke-linecap="round" stroke-linejoin="round"></path>
            <path d="M37.2914616,30.680917 C28.214445,26.041017 44.8841136,17.970717 45.1872136,13.247017 C45.2813136,11.781117 44.8314943,10.060517 43.9441943,9.06221704 C42.0528943,6.93421704 38.0985075,6.5703125 34.6515691,7.77301704" id="Stroke-4" stroke="#FFFFFF" stroke-linecap="round" stroke-linejoin="round"></path>
            <path d="M29.1364323,8.1328125 C25.0794443,6.28076172 19.733112,7.4746501 16.6180943,11.421875 C15.0317979,13.4319658 15.8802943,16.956917 16.6180943,18.407017" id="Stroke-5" stroke="#FFFFFF" stroke-linecap="round" stroke-linejoin="round"></path>
            <path d="M11.9713943,13.247017 C13.3567943,10.784817 15.2714943,8.13901704 17.4453943,6.38371704 C21.3255943,3.25061704 30.7720943,0.094617045 35.7226943,1.24811704 C36.5584943,1.44291704 37.4560943,1.83831704 37.7991943,2.76371704 C37.8792943,2.97981704 38.0520943,4.61871704 38.1874943,4.64001704" id="Stroke-6" stroke="#FFFFFF" stroke-linecap="round" stroke-linejoin="round"></path>
            <path d="M41.0675943,5.29956055 C42.8409866,5.29956055 45.6188943,6.92061704 45.6188943,8.88031704" id="Stroke-7" stroke="#FFFFFF" stroke-linecap="round" stroke-linejoin="round"></path>
            <path d="M46.2030943,15.497717 C46.6032443,18.8861095 52.6988431,21.7919045 50.0607431,26.0410045 C48.9350431,27.8541045 44.6890044,28.0009669 44.1942937,25.1682129" id="Stroke-9" stroke="#FFFFFF" stroke-linecap="round" stroke-linejoin="round"></path>
            <path d="M13.6308943,31.333117 C14.7263943,33.697417 15.0405943,37.126817 15.2704943,39.728017 C15.4212943,41.433717 15.2846943,43.277317 16.1069943,44.813717 C16.8378943,46.179317 18.2411943,47.132017 19.6281943,47.595917 C19.7224943,47.627417 21.4682195,48.1176758 22.4787871,47.2458496" id="Stroke-12" stroke="#FFFFFF" stroke-linecap="round" stroke-linejoin="round"></path>
            <path d="M5.85079427,29.249617 C5.65839427,31.321817 7.67989427,33.934117 9.44239427,34.626217 C10.1478943,34.903217 10.8546943,35.177017 11.6091943,35.251917 C11.9003943,35.280817 12.2381943,35.296817 12.5284943,35.248317 C12.6191943,35.233217 12.8886943,35.213317 12.7989943,35.192317" id="Stroke-13" stroke="#FFFFFF" stroke-linecap="round" stroke-linejoin="round"></path>
            <path d="M17.0958943,30.126617 C17.0039943,31.588417 17.3369943,32.930117 17.6668943,34.341117 C18.7178943,38.835717 20.3700943,39.744517 24.4353943,41.247517 C26.8623943,42.144917 29.3890943,42.713617 31.9739943,42.605717 C34.7502943,42.489917 37.0313943,41.980317 39.3484943,40.371917" id="Stroke-15" stroke="#FFFFFF" stroke-linecap="round" stroke-linejoin="round"></path>
            <path d="M20.7761943,41.935517 C19.6777943,44.084917 25.2737943,45.508017 26.3138943,45.776117 C30.7446943,46.918117 38.9379943,45.990917 41.0675943,40.912717" id="Stroke-16" stroke="#FFFFFF" stroke-linecap="round" stroke-linejoin="round"></path>
            <path d="M25.0794443,12.067642 C30.9414443,9.64274204 39.5523943,8.95641704 40.9570943,12.352217 C42.3618943,15.748017 38.7430943,20.473717 32.8810943,22.898617 C27.0191943,25.323517 21.1194943,24.535217 19.7147943,21.139417 C18.3100943,17.743617 19.2174443,14.492542 25.0794443,12.067642 Z" id="Stroke-19" stroke="#FFFFFF" stroke-linecap="round" stroke-linejoin="round"></path>
            <path d="M49.4902044,7.85450088 C51.9050142,6.57143551 53.2944102,8.78434857 53.8730665,10.5811375 C54.4517641,12.3779264 53.5583788,14.3499042 51.1435689,15.6329696 C48.7288003,16.9160349 47.3851456,17.6101691 46.8064893,15.8133802 C46.227833,14.0165913 47.0753946,9.13756624 49.4902044,7.85450088 Z" id="Stroke-19" stroke="#FFFFFF" stroke-linecap="round" stroke-linejoin="round" transform="translate(50.337441, 12.186587) rotate(12.000000) translate(-50.337441, -12.186587) "></path>
            <path d="M30.6340943,18.5 C31.5999306,18.5 32.4748877,18.8921627 33.1084155,19.5256905 C33.7419285,20.1592035 34.1340943,21.0341426 34.1340943,22 C34.1340943,22.965825 33.7419162,23.8407713 33.1083909,24.4742966 C32.4748656,25.1078219 31.5999193,25.5 30.6340943,25.5 C29.6682369,25.5 28.7932978,25.1078343 28.1597848,24.4743212 C27.526257,23.8407934 27.1340943,22.9658363 27.1340943,22 C27.1340943,21.0341312 27.5262446,20.1591814 28.1597602,19.5256659 C28.7932757,18.8921503 29.6682255,18.5 30.6340943,18.5 Z" id="Fill-18" stroke="#000000" fill="#FFFFFF"></path>
            <path d="M49.6032443,12.567642 C50.2433369,12.567642 50.8834725,12.8115194 51.3714155,13.2994951 C51.8593672,13.7874172 52.1032443,14.4275549 52.1032443,15.067642 C52.1032443,15.7077292 51.8593672,16.3478669 51.3713928,16.8358116 C50.8834725,17.3237647 50.2433369,17.567642 49.6032443,17.567642 C48.9631435,17.567642 48.3229854,17.3237591 47.8350281,16.8358003 C47.3471045,16.3478751 47.1032443,15.7077326 47.1032443,15.067642 C47.1032443,14.4275515 47.3471045,13.787409 47.8350281,13.2994838 C48.3229854,12.811525 48.9631435,12.567642 49.6032443,12.567642 Z" id="Fill-20" stroke="#000000" fill="#FFFFFF"></path>
        </g>
        <line x1="47" y1="61" x2="50" y2="75" id="Line-5" stroke="#FFFFFF" stroke-width="3" stroke-linecap="round"></line>
    </g>
</svg>