<?xml version="1.0" encoding="UTF-8"?>
<svg width="80px" height="80px" viewBox="0 0 80 80" version="1.1" xmlns="http://www.w3.org/2000/svg" xmlns:xlink="http://www.w3.org/1999/xlink">
    <!-- Generator: Sketch 63.1 (92452) - https://sketch.com -->
    <title>stephane-rodriguez</title>
    <desc>Created with Sketch.</desc>
    <defs>
        <rect id="path-1" x="0.914814566" y="0" width="80" height="80" rx="40"></rect>
    </defs>
    <g id="stephane-rodriguez" stroke="none" stroke-width="1" fill="none" fill-rule="evenodd">
        <g id="Group-2" transform="translate(-0.914815, 0.000000)">
            <mask id="mask-2" fill="white">
                <use xlink:href="#path-1"></use>
            </mask>
            <g id="Mask"></g>
            <circle id="Oval" fill="#000000" mask="url(#mask-2)" cx="40.9148146" cy="40" r="40"></circle>
            <g id="Group" mask="url(#mask-2)">
                <g transform="translate(17.914815, 9.000000)">
                    <ellipse id="center" stroke="#000000" stroke-width="2" fill="#FFFFFF" cx="36" cy="15.5" rx="11" ry="16.5"></ellipse>
                    <ellipse id="left" stroke="#000000" stroke-width="2" fill="#FFFFFF" cx="10" cy="15.5" rx="11" ry="16.5"></ellipse>
                    <ellipse id="center" stroke="none" fill="#000000" cx="36" cy="15" rx="5" ry="8"></ellipse>
                    <ellipse id="left" stroke="none" fill="#000000" cx="10" cy="15" rx="5" ry="8"></ellipse>
                </g>
            </g>
            <rect id="Rectangle" fill="#FFFFFF" mask="url(#mask-2)" transform="translate(18.500000, 50.647048) scale(1, -1) rotate(-165.000000) translate(-18.500000, -50.647048) " x="-3" y="48.6470476" width="43" height="4" rx="2"></rect>
            <rect id="Rectangle-Copy" fill="#FFFFFF" mask="url(#mask-2)" transform="translate(63.329629, 50.647048) scale(1, -1) rotate(-195.000000) translate(-63.329629, -50.647048) " x="41.8296291" y="48.6470476" width="43" height="4" rx="2"></rect>
            <path d="M40.9148146,35.236068 L25.5328486,66 L56.2967806,66 L40.9148146,35.236068 Z" id="Triangle" stroke="#FFFFFF" stroke-width="2" fill="#000000" mask="url(#mask-2)" transform="translate(40.914815, 50.000000) rotate(-360.000000) translate(-40.914815, -50.000000) "></path>
        </g>
    </g>
</svg>