<?xml version="1.0" encoding="UTF-8"?>
<svg width="80px" height="80px" viewBox="0 0 80 80" version="1.1" xmlns="http://www.w3.org/2000/svg" xmlns:xlink="http://www.w3.org/1999/xlink">
    <!-- Generator: Sketch 63.1 (92452) - https://sketch.com -->
    <title>theo-vallee</title>
    <desc>Created with Sketch.</desc>
    <defs>
        <rect id="path-1" x="0" y="0" width="80" height="80" rx="40"></rect>
    </defs>
    <g id="theo-vallee" stroke="none" stroke-width="1" fill="none" fill-rule="evenodd">
        <mask id="mask-2" fill="white">
            <use xlink:href="#path-1"></use>
        </mask>
        <rect stroke="#000000" stroke-width="2" x="1" y="1" width="78" height="78" rx="39"></rect>
        <circle id="center" fill="#FFFFFF" mask="url(#mask-2)" cx="53" cy="27" r="10"></circle>
        <circle id="center" fill="#000000" mask="url(#mask-2)" cx="53" cy="27" r="5"></circle>
        <polygon id="Triangle" fill="#FFFFFF" mask="url(#mask-2)" points="40 30 49 48 31 48"></polygon>
        <rect id="Rectangle" fill="#FFFFFF" mask="url(#mask-2)" transform="translate(40.000000, 57.000000) scale(1, -1) translate(-40.000000, -57.000000) " x="14" y="56" width="52" height="2" rx="1"></rect>
        <rect id="Rectangle-Copy" fill="#FFFFFF" mask="url(#mask-2)" transform="translate(27.000000, 20.000000) scale(1, -1) translate(-27.000000, -20.000000) " x="20" y="19" width="14" height="2" rx="1"></rect>
        <rect id="Rectangle-Copy" fill="#FFFFFF" mask="url(#mask-2)" transform="translate(27.000000, 29.500000) scale(1, -1) rotate(-90.000000) translate(-27.000000, -29.500000) " x="20.5" y="28.5" width="13" height="2" rx="1"></rect>
        <rect id="Rectangle" fill="#FFFFFF" mask="url(#mask-2)" transform="translate(40.000000, 61.000000) scale(1, -1) translate(-40.000000, -61.000000) " x="26" y="60" width="28" height="2" rx="1"></rect>
        <circle id="Oval" mask="url(#mask-2)" cx="40" cy="40" r="40"></circle>
    </g>
</svg>