<?xml version="1.0" encoding="UTF-8"?>
<svg width="80px" height="80px" viewBox="0 0 80 80" version="1.1" xmlns="http://www.w3.org/2000/svg" xmlns:xlink="http://www.w3.org/1999/xlink">
    <!-- Generator: Sketch 63.1 (92452) - https://sketch.com -->
    <title>thomas-lescan-du-plessix</title>
    <desc>Created with Sketch.</desc>
    <defs>
        <rect id="path-1" x="0" y="0" width="80" height="80" rx="40"></rect>
    </defs>
    <g id="thomas-lescan-du-plessix" stroke="none" stroke-width="1" fill="none" fill-rule="evenodd">
        <mask id="mask-2" fill="white">
            <use xlink:href="#path-1"></use>
        </mask>
        <rect stroke="#FFFFFF" stroke-width="2" x="1" y="1" width="78" height="78" rx="39"></rect>
        <path d="M76,40 C76,20.117749 59.882251,4 40,4 C20.117749,4 4,20.117749 4,40 C4,59.882251 76,59.882251 76,40 Z" id="Oval" fill="#000000" mask="url(#mask-2)"></path>
        <circle id="Oval" fill="#FFFFFF" mask="url(#mask-2)" cx="40" cy="48" r="3"></circle>
        <path d="M28,32 L36,32 C37.6568542,32 39,33.3431458 39,35 C39,36.6568542 37.6568542,38 36,38 L28,38 C26.3431458,38 25,36.6568542 25,35 C25,33.3431458 26.3431458,32 28,32 Z" id="Rectangle" fill="#FFFFFF" mask="url(#mask-2)" transform="translate(32.000000, 35.000000) scale(1, -1) rotate(-270.000000) translate(-32.000000, -35.000000) "></path>
        <path d="M44,32 L52,32 C53.6568542,32 55,33.3431458 55,35 C55,36.6568542 53.6568542,38 52,38 L44,38 C42.3431458,38 41,36.6568542 41,35 C41,33.3431458 42.3431458,32 44,32 Z" id="Rectangle-Copy" fill="#FFFFFF" mask="url(#mask-2)" transform="translate(48.000000, 35.000000) scale(1, -1) rotate(-270.000000) translate(-48.000000, -35.000000) "></path>
        <path d="M60,72 C60,66.4771525 51.045695,62 40,62 C28.954305,62 20,66.4771525 20,72 C20,77.5228475 60,77.5228475 60,72 Z" id="Oval" fill="#000000" mask="url(#mask-2)" transform="translate(40.000000, 69.071068) rotate(-180.000000) translate(-40.000000, -69.071068) "></path>
        <rect id="Rectangle-Copy" fill="#FFFFFF" mask="url(#mask-2)" transform="translate(35.000000, 66.000000) scale(1, -1) translate(-35.000000, -66.000000) " x="31" y="64" width="8" height="4" rx="2"></rect>
        <rect id="Rectangle-Copy" fill="#FFFFFF" mask="url(#mask-2)" transform="translate(45.000000, 66.000000) scale(1, -1) translate(-45.000000, -66.000000) " x="41" y="64" width="8" height="4" rx="2"></rect>
        <circle id="Oval" mask="url(#mask-2)" cx="40" cy="40" r="40"></circle>
    </g>
</svg>